STARTFONT 2.1
COMMENT
COMMENT Converted from OpenType font "uvnbaisau_regular.ttf" by "otf2bdf 3.0".
COMMENT
FONT -FreeType-UVN Bai Sau-Bold-R-Normal--19-140-100-100-P-98-ISO10646-1
SIZE 14 100 100
FONTBOUNDINGBOX 27 27 -3 -5
STARTPROPERTIES 19
FOUNDRY "FreeType"
FAMILY_NAME "UVN Bai Sau"
WEIGHT_NAME "Bold"
SLANT "R"
SETWIDTH_NAME "Normal"
ADD_STYLE_NAME ""
PIXEL_SIZE 19
POINT_SIZE 140
RESOLUTION_X 100
RESOLUTION_Y 100
SPACING "P"
AVERAGE_WIDTH 98
CHARSET_REGISTRY "ISO10646"
CHARSET_ENCODING "1"
FONT_ASCENT 21
FONT_DESCENT 5
COPYRIGHT "(c) Copyright 2001 by Tom Truong. All Rights Reserved"
_OTF_FONTFILE "uvnbaisau_regular.ttf"
_OTF_PSNAME "UVNBaiSauBold"
ENDPROPERTIES
CHARS 383
STARTCHAR 0020
ENCODING 32
SWIDTH 257 0
DWIDTH 5 0
BBX 0 0 0 0
BITMAP
ENDCHAR
STARTCHAR 0021
ENCODING 33
SWIDTH 308 0
DWIDTH 6 0
BBX 4 14 1 0
BITMAP
F0
F0
F0
F0
F0
70
70
70
70
70
60
F0
F0
70
ENDCHAR
STARTCHAR 0022
ENCODING 34
SWIDTH 308 0
DWIDTH 6 0
BBX 5 6 1 8
BITMAP
D8
D8
D8
D8
D8
D8
ENDCHAR
STARTCHAR 0023
ENCODING 35
SWIDTH 720 0
DWIDTH 14 0
BBX 13 14 1 0
BITMAP
0730
0630
0670
0E60
7FF8
7FF8
1CC0
18C0
FFF0
FFF0
3380
7300
6300
6700
ENDCHAR
STARTCHAR 0024
ENCODING 36
SWIDTH 514 0
DWIDTH 10 0
BBX 8 16 2 -1
BITMAP
18
18
7E
FE
FE
E0
78
7C
1E
0E
0F
FE
FE
F8
18
18
ENDCHAR
STARTCHAR 0025
ENCODING 37
SWIDTH 874 0
DWIDTH 17 0
BBX 15 14 1 0
BITMAP
3018
7C30
FC60
C660
CEC0
FCC0
7D80
033C
037E
06E6
0CC6
0CE6
187E
183C
ENDCHAR
STARTCHAR 0026
ENCODING 38
SWIDTH 720 0
DWIDTH 14 0
BBX 13 14 1 0
BITMAP
1F80
7F80
7F80
3800
3C30
7E70
FF78
F7B8
E7F8
E3F8
F1F0
7FF0
7FF8
1FF8
ENDCHAR
STARTCHAR 0027
ENCODING 39
SWIDTH 154 0
DWIDTH 3 0
BBX 2 6 1 8
BITMAP
C0
C0
C0
C0
C0
C0
ENDCHAR
STARTCHAR 0028
ENCODING 40
SWIDTH 360 0
DWIDTH 7 0
BBX 6 18 1 -5
BITMAP
08
1C
18
38
70
70
60
60
E0
E0
E0
60
60
70
30
38
1C
0C
ENDCHAR
STARTCHAR 0029
ENCODING 41
SWIDTH 360 0
DWIDTH 7 0
BBX 5 17 1 -4
BITMAP
C0
E0
70
30
38
38
18
18
18
18
18
38
38
30
70
E0
C0
ENDCHAR
STARTCHAR 002A
ENCODING 42
SWIDTH 462 0
DWIDTH 9 0
BBX 7 7 1 7
BITMAP
18
5C
76
3C
FE
56
18
ENDCHAR
STARTCHAR 002B
ENCODING 43
SWIDTH 822 0
DWIDTH 16 0
BBX 12 12 2 0
BITMAP
0600
0600
0600
0600
0600
FFF0
FFF0
0600
0600
0600
0600
0600
ENDCHAR
STARTCHAR 002C
ENCODING 44
SWIDTH 257 0
DWIDTH 5 0
BBX 5 6 0 -3
BITMAP
78
70
70
60
60
E0
ENDCHAR
STARTCHAR 002D
ENCODING 45
SWIDTH 308 0
DWIDTH 6 0
BBX 5 2 1 4
BITMAP
F8
F8
ENDCHAR
STARTCHAR 002E
ENCODING 46
SWIDTH 257 0
DWIDTH 5 0
BBX 4 4 1 0
BITMAP
40
F0
F0
E0
ENDCHAR
STARTCHAR 002F
ENCODING 47
SWIDTH 257 0
DWIDTH 5 0
BBX 7 16 -1 -2
BITMAP
06
06
04
0C
0C
08
18
18
10
30
30
20
60
60
40
C0
ENDCHAR
STARTCHAR 0030
ENCODING 48
SWIDTH 514 0
DWIDTH 10 0
BBX 9 14 1 0
BITMAP
1C00
7F00
FF80
E380
E380
E380
E380
E380
E380
E380
E380
FF80
7F00
3E00
ENDCHAR
STARTCHAR 0031
ENCODING 49
SWIDTH 514 0
DWIDTH 10 0
BBX 5 14 3 0
BITMAP
F8
F8
F8
38
38
38
38
38
38
38
38
38
38
38
ENDCHAR
STARTCHAR 0032
ENCODING 50
SWIDTH 514 0
DWIDTH 10 0
BBX 9 14 1 0
BITMAP
1C00
7F00
FF00
E780
E380
F780
EF00
5E00
3E00
7C00
7800
FF80
FF80
FF80
ENDCHAR
STARTCHAR 0033
ENCODING 51
SWIDTH 514 0
DWIDTH 10 0
BBX 9 14 1 0
BITMAP
FE00
FF00
FF80
0700
0F00
1C00
3F00
3F80
0780
0380
0780
FF80
FF00
FE00
ENDCHAR
STARTCHAR 0034
ENCODING 52
SWIDTH 514 0
DWIDTH 10 0
BBX 10 14 1 0
BITMAP
0E00
1D00
1D00
3B00
3F00
7700
F700
E700
FFC0
FFC0
FFC0
0700
0700
0700
ENDCHAR
STARTCHAR 0035
ENCODING 53
SWIDTH 514 0
DWIDTH 10 0
BBX 9 14 1 0
BITMAP
FF00
FF00
FF00
F000
F000
FE00
FF00
FF80
0380
0380
0780
FF80
FF00
FE00
ENDCHAR
STARTCHAR 0036
ENCODING 54
SWIDTH 514 0
DWIDTH 10 0
BBX 9 14 1 0
BITMAP
0E00
1E00
1C00
3C00
3800
7F00
F780
FF80
E380
E380
E380
FF80
7F00
3E00
ENDCHAR
STARTCHAR 0037
ENCODING 55
SWIDTH 514 0
DWIDTH 10 0
BBX 9 14 1 0
BITMAP
FE00
FF80
FF80
FF80
0700
0700
7F80
7F80
0E00
1E00
1E00
1C00
3C00
3C00
ENDCHAR
STARTCHAR 0038
ENCODING 56
SWIDTH 514 0
DWIDTH 10 0
BBX 9 14 1 0
BITMAP
1C00
7F00
FF80
E380
E380
7F00
7E00
FF80
E380
E380
E380
FF80
FF80
3E00
ENDCHAR
STARTCHAR 0039
ENCODING 57
SWIDTH 514 0
DWIDTH 10 0
BBX 9 14 1 0
BITMAP
1C00
7F00
FF80
F780
E380
E380
F380
F780
7700
0F00
1E00
1E00
3C00
3800
ENDCHAR
STARTCHAR 003A
ENCODING 58
SWIDTH 308 0
DWIDTH 6 0
BBX 4 9 1 0
BITMAP
F0
F0
F0
00
00
60
F0
F0
F0
ENDCHAR
STARTCHAR 003B
ENCODING 59
SWIDTH 308 0
DWIDTH 6 0
BBX 5 12 0 -3
BITMAP
38
78
38
00
00
00
78
70
70
70
60
E0
ENDCHAR
STARTCHAR 003C
ENCODING 60
SWIDTH 822 0
DWIDTH 16 0
BBX 12 11 2 1
BITMAP
0070
01F0
0FC0
3F00
F800
F000
7E00
1F80
03F0
00F0
0010
ENDCHAR
STARTCHAR 003D
ENCODING 61
SWIDTH 822 0
DWIDTH 16 0
BBX 12 6 2 3
BITMAP
FFF0
FFF0
0000
0000
FFF0
FFF0
ENDCHAR
STARTCHAR 003E
ENCODING 62
SWIDTH 822 0
DWIDTH 16 0
BBX 12 12 2 0
BITMAP
8000
E000
F800
3F00
0FC0
01F0
00F0
07E0
1F80
7C00
F000
C000
ENDCHAR
STARTCHAR 003F
ENCODING 63
SWIDTH 514 0
DWIDTH 10 0
BBX 9 14 0 0
BITMAP
1E00
7F00
7F80
F380
0380
0780
1F80
1F00
1C00
1C00
0C00
1E00
1E00
1C00
ENDCHAR
STARTCHAR 0040
ENCODING 64
SWIDTH 977 0
DWIDTH 19 0
BBX 18 17 1 -3
BITMAP
03F800
0FFE00
1C0700
300180
60C180
E3F8C0
C738C0
CE38C0
CE3180
CC3180
CC7380
CFFF00
67BC00
700000
380600
1FFC00
07F000
ENDCHAR
STARTCHAR 0041
ENCODING 65
SWIDTH 617 0
DWIDTH 12 0
BBX 10 14 1 0
BITMAP
1E00
3F80
7F80
FFC0
E1C0
E1C0
EFC0
EFC0
EFC0
E1C0
E1C0
E1C0
E1C0
E1C0
ENDCHAR
STARTCHAR 0042
ENCODING 66
SWIDTH 565 0
DWIDTH 11 0
BBX 10 14 1 0
BITMAP
1E00
7F00
7F80
F380
E380
E780
EF00
EF80
E7C0
E1C0
E3C0
EFC0
EF80
EF00
ENDCHAR
STARTCHAR 0043
ENCODING 67
SWIDTH 462 0
DWIDTH 9 0
BBX 8 14 1 0
BITMAP
03
1F
7F
7F
F0
E0
E0
E0
E0
F0
F8
7F
3F
0F
ENDCHAR
STARTCHAR 0044
ENCODING 68
SWIDTH 617 0
DWIDTH 12 0
BBX 11 14 1 0
BITMAP
F800
FF00
FF80
FFC0
E3C0
E1E0
E1E0
E1E0
E1E0
E1E0
E7C0
EF80
EF00
EE00
ENDCHAR
STARTCHAR 0045
ENCODING 69
SWIDTH 514 0
DWIDTH 10 0
BBX 8 14 1 0
BITMAP
03
1F
7F
7E
F0
E0
FF
FF
FF
F0
F8
7F
3F
0F
ENDCHAR
STARTCHAR 0046
ENCODING 70
SWIDTH 411 0
DWIDTH 8 0
BBX 7 14 1 0
BITMAP
1E
7E
FE
FE
E0
E0
FE
FE
FE
E0
E0
E0
E0
E0
ENDCHAR
STARTCHAR 0047
ENCODING 71
SWIDTH 771 0
DWIDTH 15 0
BBX 13 14 1 0
BITMAP
0F80
3FE0
7FF0
7CE0
F040
E000
E3F8
E3F8
E3F8
F078
F8F8
7FF0
3FE0
1FC0
ENDCHAR
STARTCHAR 0048
ENCODING 72
SWIDTH 617 0
DWIDTH 12 0
BBX 10 14 1 0
BITMAP
E1C0
E1C0
E1C0
E1C0
E1C0
FFC0
FFC0
FFC0
FFC0
E1C0
E1C0
E1C0
E1C0
E1C0
ENDCHAR
STARTCHAR 0049
ENCODING 73
SWIDTH 257 0
DWIDTH 5 0
BBX 3 14 1 0
BITMAP
E0
E0
E0
E0
E0
E0
E0
E0
E0
E0
E0
E0
E0
E0
ENDCHAR
STARTCHAR 004A
ENCODING 74
SWIDTH 411 0
DWIDTH 8 0
BBX 7 14 0 0
BITMAP
0E
0E
0E
0E
0E
0E
0E
0E
0E
0E
0E
FE
FC
F8
ENDCHAR
STARTCHAR 004B
ENCODING 75
SWIDTH 565 0
DWIDTH 11 0
BBX 11 14 1 0
BITMAP
E1E0
E3C0
E3C0
E380
E780
FF00
FF80
FF80
E7C0
E3C0
E1C0
E1C0
E1C0
E1C0
ENDCHAR
STARTCHAR 004C
ENCODING 76
SWIDTH 411 0
DWIDTH 8 0
BBX 7 14 1 0
BITMAP
E0
E0
E0
E0
E0
E0
E0
E0
E0
E0
F0
FE
7E
3E
ENDCHAR
STARTCHAR 004D
ENCODING 77
SWIDTH 822 0
DWIDTH 16 0
BBX 16 14 0 0
BITMAP
1818
3C3C
3E7C
367E
367E
776E
776E
77EE
73EE
73CE
73CF
73C7
F3C7
F187
ENDCHAR
STARTCHAR 004E
ENCODING 78
SWIDTH 617 0
DWIDTH 12 0
BBX 11 14 1 0
BITMAP
60E0
F0E0
F8E0
F8E0
FCE0
FCE0
EEE0
EEE0
E7E0
E7E0
E3E0
E3E0
E1E0
E0E0
ENDCHAR
STARTCHAR 004F
ENCODING 79
SWIDTH 771 0
DWIDTH 15 0
BBX 13 14 1 0
BITMAP
0F80
3FE0
7FF0
7FF0
F078
E038
E038
E038
E038
F078
F8F8
7FF0
3FE0
1FC0
ENDCHAR
STARTCHAR 0050
ENCODING 80
SWIDTH 565 0
DWIDTH 11 0
BBX 10 14 1 0
BITMAP
1E00
7F00
7F80
F7C0
E3C0
E3C0
EF80
EF80
EF00
EC00
E000
E000
E000
E000
ENDCHAR
STARTCHAR 0051
ENCODING 81
SWIDTH 771 0
DWIDTH 15 0
BBX 14 16 1 -2
BITMAP
0F80
3FE0
7FF0
7FF0
F078
E038
E038
E03C
E038
F778
F7F8
77F0
37E0
17C0
0700
0700
ENDCHAR
STARTCHAR 0052
ENCODING 82
SWIDTH 565 0
DWIDTH 11 0
BBX 10 14 1 0
BITMAP
1E00
7F00
FF80
F780
E380
E380
EF00
EF80
EFC0
E3C0
E3C0
E3C0
E3C0
E3C0
ENDCHAR
STARTCHAR 0053
ENCODING 83
SWIDTH 514 0
DWIDTH 10 0
BBX 9 14 1 0
BITMAP
1F00
7F00
FF00
FF00
E000
F800
7C00
3F00
1F00
0780
0780
FF80
FF00
FE00
ENDCHAR
STARTCHAR 0054
ENCODING 84
SWIDTH 462 0
DWIDTH 9 0
BBX 9 14 0 0
BITMAP
FF80
FF80
FF80
FF80
1E00
1E00
1E00
1E00
1E00
1E00
1E00
1E00
1E00
1E00
ENDCHAR
STARTCHAR 0055
ENCODING 85
SWIDTH 617 0
DWIDTH 12 0
BBX 10 14 1 0
BITMAP
E1C0
E1C0
E1C0
E1C0
E1C0
E1C0
E1C0
E1C0
E1C0
E1C0
F3C0
7FC0
7F80
3F00
ENDCHAR
STARTCHAR 0056
ENCODING 86
SWIDTH 514 0
DWIDTH 10 0
BBX 11 14 0 0
BITMAP
E0E0
E1E0
F1E0
F1C0
71C0
73C0
7B80
3B80
3B80
3F80
3F00
1F00
1F00
0E00
ENDCHAR
STARTCHAR 0057
ENCODING 87
SWIDTH 874 0
DWIDTH 17 0
BBX 16 14 1 0
BITMAP
E3C7
E3C7
E3C7
E3C7
E3C7
E3C7
E3C7
E3C7
E3C7
E3C7
F3CF
FFFE
7FFE
3E7C
ENDCHAR
STARTCHAR 0058
ENCODING 88
SWIDTH 617 0
DWIDTH 12 0
BBX 12 14 0 0
BITMAP
8010
F0F0
FDF0
FFF0
1F80
0F00
0F00
0F00
0F00
0F80
3FC0
FFF0
F9F0
E070
ENDCHAR
STARTCHAR 0059
ENCODING 89
SWIDTH 565 0
DWIDTH 11 0
BBX 9 14 1 0
BITMAP
E380
E380
E380
E380
E380
E380
FF80
7F00
3F00
1C00
1C00
1C00
1C00
1C00
ENDCHAR
STARTCHAR 005A
ENCODING 90
SWIDTH 514 0
DWIDTH 10 0
BBX 10 14 0 0
BITMAP
7F80
7FC0
7FC0
7FC0
0780
0F00
0F00
1E00
3C00
7C00
7800
FFC0
FFC0
7FC0
ENDCHAR
STARTCHAR 005B
ENCODING 91
SWIDTH 308 0
DWIDTH 6 0
BBX 4 18 2 -4
BITMAP
F0
F0
C0
C0
C0
C0
C0
C0
C0
C0
C0
C0
C0
C0
C0
C0
C0
F0
ENDCHAR
STARTCHAR 005C
ENCODING 92
SWIDTH 257 0
DWIDTH 5 0
BBX 7 16 -1 -2
BITMAP
C0
40
60
60
20
30
30
10
18
18
08
0C
0C
04
06
06
ENDCHAR
STARTCHAR 005D
ENCODING 93
SWIDTH 308 0
DWIDTH 6 0
BBX 4 18 1 -4
BITMAP
F0
F0
70
70
70
70
70
70
70
70
70
70
70
70
70
70
70
F0
ENDCHAR
STARTCHAR 005E
ENCODING 94
SWIDTH 977 0
DWIDTH 19 0
BBX 11 5 4 9
BITMAP
0E00
1F00
3B80
31C0
E0E0
ENDCHAR
STARTCHAR 005F
ENCODING 95
SWIDTH 462 0
DWIDTH 9 0
BBX 10 3 0 -5
BITMAP
FFC0
FFC0
FFC0
ENDCHAR
STARTCHAR 0060
ENCODING 96
SWIDTH 462 0
DWIDTH 9 0
BBX 3 3 3 11
BITMAP
C0
40
60
ENDCHAR
STARTCHAR 0061
ENCODING 97
SWIDTH 514 0
DWIDTH 10 0
BBX 10 10 0 0
BITMAP
1E00
3F80
7F80
73C0
71C0
F1C0
71C0
7FC0
3FC0
1FC0
ENDCHAR
STARTCHAR 0062
ENCODING 98
SWIDTH 514 0
DWIDTH 10 0
BBX 9 14 1 0
BITMAP
E000
E000
E000
E000
FE00
FF00
FF80
E380
E380
E380
E380
FF80
7F00
3E00
ENDCHAR
STARTCHAR 0063
ENCODING 99
SWIDTH 360 0
DWIDTH 7 0
BBX 7 10 0 0
BITMAP
06
3E
7E
78
70
F0
70
7E
3E
1E
ENDCHAR
STARTCHAR 0064
ENCODING 100
SWIDTH 514 0
DWIDTH 10 0
BBX 10 14 0 0
BITMAP
01C0
01C0
01C0
01C0
0FC0
3FC0
7FC0
71C0
71C0
F1C0
71C0
7FC0
3F80
1F00
ENDCHAR
STARTCHAR 0065
ENCODING 101
SWIDTH 514 0
DWIDTH 10 0
BBX 11 10 0 0
BITMAP
0E00
3F80
7F80
73C0
6F00
E680
71E0
7FC0
3F80
1F00
ENDCHAR
STARTCHAR 0066
ENCODING 102
SWIDTH 308 0
DWIDTH 6 0
BBX 6 14 1 0
BITMAP
1C
7C
FC
E0
FC
FC
FC
E0
E0
E0
E0
E0
E0
E0
ENDCHAR
STARTCHAR 0067
ENCODING 103
SWIDTH 514 0
DWIDTH 10 0
BBX 10 14 0 -4
BITMAP
1E00
3F80
7F80
73C0
71C0
F1C0
71C0
7FC0
3FC0
1FC0
01C0
3FC0
3F80
3F00
ENDCHAR
STARTCHAR 0068
ENCODING 104
SWIDTH 514 0
DWIDTH 10 0
BBX 9 14 1 0
BITMAP
E000
E000
E000
E000
EE00
FF00
FF00
E780
E380
E380
E380
E380
E380
E380
ENDCHAR
STARTCHAR 0069
ENCODING 105
SWIDTH 205 0
DWIDTH 4 0
BBX 3 14 1 0
BITMAP
E0
E0
E0
40
E0
E0
E0
E0
E0
E0
E0
E0
E0
E0
ENDCHAR
STARTCHAR 006A
ENCODING 106
SWIDTH 205 0
DWIDTH 4 0
BBX 5 18 -1 -4
BITMAP
38
38
38
10
38
38
38
38
38
38
38
38
38
38
38
F8
F0
E0
ENDCHAR
STARTCHAR 006B
ENCODING 107
SWIDTH 514 0
DWIDTH 10 0
BBX 9 14 1 0
BITMAP
E000
E000
E000
E000
E780
E700
E700
FE00
FE00
FF00
E700
E700
E700
E700
ENDCHAR
STARTCHAR 006C
ENCODING 108
SWIDTH 205 0
DWIDTH 4 0
BBX 3 14 1 0
BITMAP
E0
E0
E0
E0
E0
E0
E0
E0
E0
E0
E0
E0
E0
E0
ENDCHAR
STARTCHAR 006D
ENCODING 109
SWIDTH 771 0
DWIDTH 15 0
BBX 14 10 1 0
BITMAP
38E0
7FF8
FFF8
E7BC
E71C
E71C
E71C
E71C
E71C
E71C
ENDCHAR
STARTCHAR 006E
ENCODING 110
SWIDTH 514 0
DWIDTH 10 0
BBX 9 10 1 0
BITMAP
3C00
7E00
FF00
E700
E380
E380
E380
E380
E380
E380
ENDCHAR
STARTCHAR 006F
ENCODING 111
SWIDTH 514 0
DWIDTH 10 0
BBX 10 10 0 0
BITMAP
0E00
3F80
7F80
73C0
71C0
F1C0
71C0
7FC0
3F80
1F00
ENDCHAR
STARTCHAR 0070
ENCODING 112
SWIDTH 514 0
DWIDTH 10 0
BBX 9 14 1 -4
BITMAP
1C00
7F00
FF80
F380
E380
E380
E380
FF80
FF00
FE00
E000
E000
E000
E000
ENDCHAR
STARTCHAR 0071
ENCODING 113
SWIDTH 514 0
DWIDTH 10 0
BBX 10 14 0 -4
BITMAP
1E00
3F80
7F80
73C0
71C0
F1C0
71C0
7FC0
3FC0
1FC0
01C0
01C0
01C0
01C0
ENDCHAR
STARTCHAR 0072
ENCODING 114
SWIDTH 360 0
DWIDTH 7 0
BBX 6 10 1 0
BITMAP
E4
FC
FC
F0
E0
E0
E0
E0
E0
E0
ENDCHAR
STARTCHAR 0073
ENCODING 115
SWIDTH 411 0
DWIDTH 8 0
BBX 7 10 1 0
BITMAP
3C
FC
FC
E0
F8
7C
1E
FE
FE
FC
ENDCHAR
STARTCHAR 0074
ENCODING 116
SWIDTH 308 0
DWIDTH 6 0
BBX 5 12 1 0
BITMAP
E0
E0
F8
F8
F8
E0
E0
E0
E0
F8
F8
38
ENDCHAR
STARTCHAR 0075
ENCODING 117
SWIDTH 514 0
DWIDTH 10 0
BBX 9 10 1 0
BITMAP
E380
E380
E380
E380
E380
E380
E780
FF00
7F00
3E00
ENDCHAR
STARTCHAR 0076
ENCODING 118
SWIDTH 462 0
DWIDTH 9 0
BBX 9 10 0 0
BITMAP
E380
E380
E380
7300
7700
7700
3F00
3E00
3E00
1C00
ENDCHAR
STARTCHAR 0077
ENCODING 119
SWIDTH 771 0
DWIDTH 15 0
BBX 14 10 1 0
BITMAP
E71C
E71C
E71C
E71C
E71C
E71C
E71C
FFF8
7FF8
3DF0
ENDCHAR
STARTCHAR 0078
ENCODING 120
SWIDTH 411 0
DWIDTH 8 0
BBX 9 10 0 0
BITMAP
C180
F780
FF80
3E00
1C00
1C00
3C00
FF80
FF80
E380
ENDCHAR
STARTCHAR 0079
ENCODING 121
SWIDTH 514 0
DWIDTH 10 0
BBX 9 14 1 -4
BITMAP
E380
E380
E380
E380
E380
E380
E780
FF00
7F00
3E00
1C00
1C00
1C00
1C00
ENDCHAR
STARTCHAR 007A
ENCODING 122
SWIDTH 411 0
DWIDTH 8 0
BBX 8 10 0 0
BITMAP
7E
7F
7F
0F
1E
3C
78
7F
FF
7F
ENDCHAR
STARTCHAR 007B
ENCODING 123
SWIDTH 462 0
DWIDTH 9 0
BBX 7 18 1 -4
BITMAP
0E
1E
1C
1C
1C
1C
1C
38
F8
F8
38
1C
1C
1C
1C
1C
1E
0E
ENDCHAR
STARTCHAR 007C
ENCODING 124
SWIDTH 462 0
DWIDTH 9 0
BBX 2 20 4 -5
BITMAP
C0
C0
C0
C0
C0
C0
C0
C0
C0
C0
C0
C0
C0
C0
C0
C0
C0
C0
C0
C0
ENDCHAR
STARTCHAR 007D
ENCODING 125
SWIDTH 462 0
DWIDTH 9 0
BBX 7 18 1 -4
BITMAP
F0
F8
38
38
38
38
38
3C
1E
1E
38
38
38
38
38
38
F8
F0
ENDCHAR
STARTCHAR 007E
ENCODING 126
SWIDTH 822 0
DWIDTH 16 0
BBX 13 4 2 4
BITMAP
1008
FF38
FFF8
81E0
ENDCHAR
STARTCHAR 0080
ENCODING 128
SWIDTH 514 0
DWIDTH 10 0
BBX 10 14 0 0
BITMAP
00C0
07C0
1FC0
1F00
3C00
FFC0
3800
3800
FF80
3C00
3E00
1FC0
0FC0
03C0
ENDCHAR
STARTCHAR 00A0
ENCODING 160
SWIDTH 514 0
DWIDTH 10 0
BBX 0 0 0 0
BITMAP
ENDCHAR
STARTCHAR 00A1
ENCODING 161
SWIDTH 308 0
DWIDTH 6 0
BBX 4 14 1 0
BITMAP
60
F0
F0
70
00
70
70
70
70
F0
F0
F0
F0
F0
ENDCHAR
STARTCHAR 00A2
ENCODING 162
SWIDTH 514 0
DWIDTH 10 0
BBX 7 13 2 0
BITMAP
18
18
3E
7E
FE
E0
E0
E0
7E
7E
18
18
18
ENDCHAR
STARTCHAR 00A3
ENCODING 163
SWIDTH 514 0
DWIDTH 10 0
BBX 11 14 0 0
BITMAP
0F00
1F00
3F00
3C00
3800
7E00
7E00
7E00
38E0
39E0
79E0
FFC0
FFC0
FF00
ENDCHAR
STARTCHAR 00A4
ENCODING 164
SWIDTH 514 0
DWIDTH 10 0
BBX 10 14 0 0
BITMAP
00C0
07C0
1FC0
1F00
3C00
FFC0
3800
3800
FF80
3C00
3E00
1FC0
0FC0
03C0
ENDCHAR
STARTCHAR 00A5
ENCODING 165
SWIDTH 565 0
DWIDTH 11 0
BBX 11 14 0 0
BITMAP
E0E0
70E0
71C0
71C0
F9E0
FBE0
1F80
FFE0
0F00
0E00
0E00
0E00
0E00
0E00
ENDCHAR
STARTCHAR 00A6
ENCODING 166
SWIDTH 462 0
DWIDTH 9 0
BBX 2 17 4 -3
BITMAP
C0
C0
C0
C0
C0
C0
C0
C0
00
00
C0
C0
C0
C0
C0
C0
C0
ENDCHAR
STARTCHAR 00A7
ENCODING 167
SWIDTH 514 0
DWIDTH 10 0
BBX 9 15 1 -1
BITMAP
1F00
7F00
FF00
F000
F000
7C00
FE00
E700
7380
3F00
0F00
0700
FF80
FF00
FF00
ENDCHAR
STARTCHAR 00A8
ENCODING 168
SWIDTH 462 0
DWIDTH 9 0
BBX 6 3 2 11
BITMAP
48
DC
C8
ENDCHAR
STARTCHAR 00A9
ENCODING 169
SWIDTH 822 0
DWIDTH 16 0
BBX 14 14 1 0
BITMAP
0FC0
1870
2018
47C8
CCCC
9C64
9804
9804
9C64
CCCC
47C8
2018
1870
0FC0
ENDCHAR
STARTCHAR 00AA
ENCODING 170
SWIDTH 411 0
DWIDTH 8 0
BBX 8 7 0 7
BITMAP
18
7E
66
E7
E7
7F
3F
ENDCHAR
STARTCHAR 00AB
ENCODING 171
SWIDTH 514 0
DWIDTH 10 0
BBX 8 6 1 2
BITMAP
33
77
66
EC
66
33
ENDCHAR
STARTCHAR 00AC
ENCODING 172
SWIDTH 822 0
DWIDTH 16 0
BBX 12 5 2 3
BITMAP
FFF0
FFF0
0030
0030
0030
ENDCHAR
STARTCHAR 00AD
ENCODING 173
SWIDTH 308 0
DWIDTH 6 0
BBX 5 2 1 4
BITMAP
F8
F8
ENDCHAR
STARTCHAR 00AE
ENCODING 174
SWIDTH 822 0
DWIDTH 16 0
BBX 14 14 1 0
BITMAP
0FC0
1870
2018
4FC8
CCCC
8CE4
8FC4
8F84
8DC4
CCCC
4CE8
2018
1870
0FC0
ENDCHAR
STARTCHAR 00AF
ENCODING 175
SWIDTH 462 0
DWIDTH 9 0
BBX 6 1 2 12
BITMAP
FC
ENDCHAR
STARTCHAR 00B0
ENCODING 176
SWIDTH 308 0
DWIDTH 6 0
BBX 6 6 0 8
BITMAP
38
6C
C4
C4
6C
38
ENDCHAR
STARTCHAR 00B1
ENCODING 177
SWIDTH 822 0
DWIDTH 16 0
BBX 12 12 2 0
BITMAP
0600
0600
0600
FFF0
FFF0
0600
0600
0600
0000
0000
FFF0
FFF0
ENDCHAR
STARTCHAR 00B2
ENCODING 178
SWIDTH 360 0
DWIDTH 7 0
BBX 6 9 1 5
BITMAP
70
F8
DC
D8
B8
70
E0
FC
FC
ENDCHAR
STARTCHAR 00B3
ENCODING 179
SWIDTH 360 0
DWIDTH 7 0
BBX 6 9 1 5
BITMAP
F0
F8
18
70
78
1C
1C
F8
E0
ENDCHAR
STARTCHAR 00B4
ENCODING 180
SWIDTH 462 0
DWIDTH 9 0
BBX 3 3 4 11
BITMAP
60
C0
80
ENDCHAR
STARTCHAR 00B5
ENCODING 181
SWIDTH 617 0
DWIDTH 12 0
BBX 12 14 0 -4
BITMAP
38F0
38F0
78E0
78E0
70E0
70E0
71E0
7BE0
FFE0
FFC0
E000
E000
E000
E000
ENDCHAR
STARTCHAR 00B6
ENCODING 182
SWIDTH 462 0
DWIDTH 9 0
BBX 9 14 0 0
BITMAP
3F80
7900
F900
F900
F900
7900
1900
0900
0900
0900
0900
0900
0900
0900
ENDCHAR
STARTCHAR 00B7
ENCODING 183
SWIDTH 257 0
DWIDTH 5 0
BBX 4 4 1 5
BITMAP
60
F0
F0
E0
ENDCHAR
STARTCHAR 00B8
ENCODING 184
SWIDTH 462 0
DWIDTH 9 0
BBX 5 6 3 -5
BITMAP
20
40
70
18
F8
60
ENDCHAR
STARTCHAR 00B9
ENCODING 185
SWIDTH 360 0
DWIDTH 7 0
BBX 3 9 2 5
BITMAP
E0
E0
60
60
60
60
60
60
60
ENDCHAR
STARTCHAR 00BA
ENCODING 186
SWIDTH 411 0
DWIDTH 8 0
BBX 8 7 0 7
BITMAP
18
7E
66
E7
E7
7E
3C
ENDCHAR
STARTCHAR 00BB
ENCODING 187
SWIDTH 514 0
DWIDTH 10 0
BBX 8 6 1 2
BITMAP
CC
66
33
33
66
EE
ENDCHAR
STARTCHAR 00BC
ENCODING 188
SWIDTH 874 0
DWIDTH 17 0
BBX 15 14 2 0
BITMAP
E060
E060
60C0
60C0
6180
6100
6318
661C
063C
0C6C
0C6C
187E
100C
300C
ENDCHAR
STARTCHAR 00BD
ENCODING 189
SWIDTH 874 0
DWIDTH 17 0
BBX 15 14 2 0
BITMAP
E060
E060
60C0
60C0
6180
6100
6338
667C
066C
0C6C
0C18
1830
107E
307E
ENDCHAR
STARTCHAR 00BE
ENCODING 190
SWIDTH 874 0
DWIDTH 17 0
BBX 16 14 1 0
BITMAP
F030
F830
3860
6060
78C0
1880
F98C
F30E
031E
0636
0636
0C3F
0806
1806
ENDCHAR
STARTCHAR 00BF
ENCODING 191
SWIDTH 514 0
DWIDTH 10 0
BBX 8 14 1 0
BITMAP
18
3C
3C
1C
00
1C
7C
FC
FC
E0
E7
FF
FF
3E
ENDCHAR
STARTCHAR 00C0
ENCODING 192
SWIDTH 617 0
DWIDTH 12 0
BBX 10 18 1 0
BITMAP
1800
0C00
0400
0000
1E00
3F80
7F80
FFC0
E1C0
E1C0
EFC0
EFC0
EFC0
E1C0
E1C0
E1C0
E1C0
E1C0
ENDCHAR
STARTCHAR 00C1
ENCODING 193
SWIDTH 617 0
DWIDTH 12 0
BBX 10 18 1 0
BITMAP
0600
0C00
0800
0000
1E00
3F80
7F80
FFC0
E1C0
E1C0
EFC0
EFC0
EFC0
E1C0
E1C0
E1C0
E1C0
E1C0
ENDCHAR
STARTCHAR 00C2
ENCODING 194
SWIDTH 617 0
DWIDTH 12 0
BBX 10 18 1 0
BITMAP
0C00
1E00
1200
3100
1E00
3F80
7F80
FFC0
E1C0
E1C0
EFC0
EFC0
EFC0
E1C0
E1C0
E1C0
E1C0
E1C0
ENDCHAR
STARTCHAR 00C3
ENCODING 195
SWIDTH 617 0
DWIDTH 12 0
BBX 10 18 1 0
BITMAP
0100
3F00
2000
0000
1E00
3F80
7F80
FFC0
E1C0
E1C0
EFC0
EFC0
EFC0
E1C0
E1C0
E1C0
E1C0
E1C0
ENDCHAR
STARTCHAR 00C4
ENCODING 196
SWIDTH 617 0
DWIDTH 12 0
BBX 10 18 1 0
BITMAP
1300
3B00
1200
0000
1E00
3F80
7F80
FFC0
E1C0
E1C0
EFC0
EFC0
EFC0
E1C0
E1C0
E1C0
E1C0
E1C0
ENDCHAR
STARTCHAR 00C5
ENCODING 197
SWIDTH 617 0
DWIDTH 12 0
BBX 10 19 1 0
BITMAP
0C00
1E00
1200
1200
1E00
1E00
3F80
7F80
FFC0
E1C0
E1C0
EFC0
EFC0
EFC0
E1C0
E1C0
E1C0
E1C0
E1C0
ENDCHAR
STARTCHAR 00C6
ENCODING 198
SWIDTH 822 0
DWIDTH 16 0
BBX 15 14 1 0
BITMAP
1E06
3F3E
7FFE
FBFC
E1E0
E1C0
EFFE
EFFE
EFFE
E1C0
E1F0
E1FE
E1FE
E1DE
ENDCHAR
STARTCHAR 00C7
ENCODING 199
SWIDTH 462 0
DWIDTH 9 0
BBX 8 19 1 -5
BITMAP
03
1F
7F
7F
F0
E0
E0
E0
E0
F0
F8
7F
3F
0F
08
0E
03
1E
0C
ENDCHAR
STARTCHAR 00C8
ENCODING 200
SWIDTH 514 0
DWIDTH 10 0
BBX 8 18 1 0
BITMAP
1C
0C
06
00
03
1F
7F
7E
F0
E0
FF
FF
FF
F0
F8
7F
3F
0F
ENDCHAR
STARTCHAR 00C9
ENCODING 201
SWIDTH 514 0
DWIDTH 10 0
BBX 8 18 1 0
BITMAP
07
06
0C
00
03
1F
7F
7E
F0
E0
FF
FF
FF
F0
F8
7F
3F
0F
ENDCHAR
STARTCHAR 00CA
ENCODING 202
SWIDTH 514 0
DWIDTH 10 0
BBX 8 18 1 0
BITMAP
0E
0E
1B
31
03
1F
7F
7E
F0
E0
FF
FF
FF
F0
F8
7F
3F
0F
ENDCHAR
STARTCHAR 00CB
ENCODING 203
SWIDTH 514 0
DWIDTH 10 0
BBX 8 18 1 0
BITMAP
1B
3B
13
00
03
1F
7F
7E
F0
E0
FF
FF
FF
F0
F8
7F
3F
0F
ENDCHAR
STARTCHAR 00CC
ENCODING 204
SWIDTH 257 0
DWIDTH 5 0
BBX 4 18 0 0
BITMAP
E0
20
30
00
70
70
70
70
70
70
70
70
70
70
70
70
70
70
ENDCHAR
STARTCHAR 00CD
ENCODING 205
SWIDTH 257 0
DWIDTH 5 0
BBX 4 18 1 0
BITMAP
30
60
40
00
E0
E0
E0
E0
E0
E0
E0
E0
E0
E0
E0
E0
E0
E0
ENDCHAR
STARTCHAR 00CE
ENCODING 206
SWIDTH 257 0
DWIDTH 5 0
BBX 5 18 0 0
BITMAP
70
58
C8
00
70
70
70
70
70
70
70
70
70
70
70
70
70
70
ENDCHAR
STARTCHAR 00CF
ENCODING 207
SWIDTH 257 0
DWIDTH 5 0
BBX 6 18 0 0
BITMAP
C8
DC
C8
00
70
70
70
70
70
70
70
70
70
70
70
70
70
70
ENDCHAR
STARTCHAR 00D0
ENCODING 208
SWIDTH 617 0
DWIDTH 12 0
BBX 12 14 0 0
BITMAP
7C00
7F80
7FC0
7FE0
71E0
70F0
FC70
FC70
70F0
70F0
73E0
77C0
7780
7700
ENDCHAR
STARTCHAR 00D1
ENCODING 209
SWIDTH 617 0
DWIDTH 12 0
BBX 11 18 1 0
BITMAP
0900
1F00
3000
0000
60E0
F0E0
F8E0
F8E0
FCE0
FCE0
EEE0
EEE0
E7E0
E7E0
E3E0
E3E0
E1E0
E0E0
ENDCHAR
STARTCHAR 00D2
ENCODING 210
SWIDTH 771 0
DWIDTH 15 0
BBX 13 18 1 0
BITMAP
0E00
0600
0300
0000
0F80
3FE0
7FF0
7FF0
F078
E038
E038
E038
E038
F078
F8F8
7FF0
3FE0
1FC0
ENDCHAR
STARTCHAR 00D3
ENCODING 211
SWIDTH 771 0
DWIDTH 15 0
BBX 13 18 1 0
BITMAP
0380
0300
0600
0000
0F80
3FE0
7FF0
7FF0
F078
E038
E038
E038
E038
F078
F8F8
7FF0
3FE0
1FC0
ENDCHAR
STARTCHAR 00D4
ENCODING 212
SWIDTH 771 0
DWIDTH 15 0
BBX 13 18 1 0
BITMAP
0700
0700
0D80
0880
0F80
3FE0
7FF0
7FF0
F078
E038
E038
E038
E038
F078
F8F8
7FF0
3FE0
1FC0
ENDCHAR
STARTCHAR 00D5
ENCODING 213
SWIDTH 771 0
DWIDTH 15 0
BBX 13 18 1 0
BITMAP
0480
0F80
0800
0000
0F80
3FE0
7FF0
7FF0
F078
E038
E038
E038
E038
F078
F8F8
7FF0
3FE0
1FC0
ENDCHAR
STARTCHAR 00D6
ENCODING 214
SWIDTH 771 0
DWIDTH 15 0
BBX 13 18 1 0
BITMAP
0D80
0D80
0C80
0000
0F80
3FE0
7FF0
7FF0
F078
E038
E038
E038
E038
F078
F8F8
7FF0
3FE0
1FC0
ENDCHAR
STARTCHAR 00D7
ENCODING 215
SWIDTH 822 0
DWIDTH 16 0
BBX 11 11 3 1
BITMAP
C0C0
E1C0
7380
3F00
1E00
1E00
3F00
7380
E1C0
C0E0
0040
ENDCHAR
STARTCHAR 00D8
ENCODING 216
SWIDTH 771 0
DWIDTH 15 0
BBX 13 14 1 -1
BITMAP
0F98
3FF8
7FF0
7DF0
F0F8
E1B8
E338
E638
EC38
FC78
F8F8
7FF0
FFE0
DFC0
ENDCHAR
STARTCHAR 00D9
ENCODING 217
SWIDTH 617 0
DWIDTH 12 0
BBX 10 18 1 0
BITMAP
1800
0C00
0400
0000
E1C0
E1C0
E1C0
E1C0
E1C0
E1C0
E1C0
E1C0
E1C0
E1C0
F3C0
7FC0
7F80
3F00
ENDCHAR
STARTCHAR 00DA
ENCODING 218
SWIDTH 617 0
DWIDTH 12 0
BBX 10 18 1 0
BITMAP
0600
0C00
0800
0000
E1C0
E1C0
E1C0
E1C0
E1C0
E1C0
E1C0
E1C0
E1C0
E1C0
F3C0
7FC0
7F80
3F00
ENDCHAR
STARTCHAR 00DB
ENCODING 219
SWIDTH 617 0
DWIDTH 12 0
BBX 10 18 1 0
BITMAP
1E00
1E00
3300
0000
E1C0
E1C0
E1C0
E1C0
E1C0
E1C0
E1C0
E1C0
E1C0
E1C0
F3C0
7FC0
7F80
3F00
ENDCHAR
STARTCHAR 00DC
ENCODING 220
SWIDTH 617 0
DWIDTH 12 0
BBX 10 18 1 0
BITMAP
1300
3B00
1200
0000
E1C0
E1C0
E1C0
E1C0
E1C0
E1C0
E1C0
E1C0
E1C0
E1C0
F3C0
7FC0
7F80
3F00
ENDCHAR
STARTCHAR 00DD
ENCODING 221
SWIDTH 565 0
DWIDTH 11 0
BBX 9 18 1 0
BITMAP
0E00
0C00
1800
0000
E380
E380
E380
E380
E380
E380
FF80
7F00
3F00
1C00
1C00
1C00
1C00
1C00
ENDCHAR
STARTCHAR 00DE
ENCODING 222
SWIDTH 565 0
DWIDTH 11 0
BBX 10 14 1 0
BITMAP
E000
E000
FE00
FF00
FF80
F3C0
E3C0
E3C0
EF80
EF80
EF00
E000
E000
E000
ENDCHAR
STARTCHAR 00DF
ENCODING 223
SWIDTH 565 0
DWIDTH 11 0
BBX 11 14 0 0
BITMAP
1E00
3F00
7F80
7380
F380
F700
F780
73C0
71E0
70E0
70E0
77E0
77C0
7780
ENDCHAR
STARTCHAR 00E0
ENCODING 224
SWIDTH 514 0
DWIDTH 10 0
BBX 10 14 0 0
BITMAP
1800
0C00
0600
0000
1E00
3F80
7F80
73C0
71C0
F1C0
71C0
7FC0
3FC0
1FC0
ENDCHAR
STARTCHAR 00E1
ENCODING 225
SWIDTH 514 0
DWIDTH 10 0
BBX 10 14 0 0
BITMAP
0700
0600
0C00
0000
1E00
3F80
7F80
73C0
71C0
F1C0
71C0
7FC0
3FC0
1FC0
ENDCHAR
STARTCHAR 00E2
ENCODING 226
SWIDTH 514 0
DWIDTH 10 0
BBX 10 14 0 0
BITMAP
0E00
1A00
1300
0000
1E00
3F80
7F80
73C0
71C0
F1C0
71C0
7FC0
3FC0
1FC0
ENDCHAR
STARTCHAR 00E3
ENCODING 227
SWIDTH 514 0
DWIDTH 10 0
BBX 10 14 0 0
BITMAP
0100
1F00
1200
0000
1E00
3F80
7F80
73C0
71C0
F1C0
71C0
7FC0
3FC0
1FC0
ENDCHAR
STARTCHAR 00E4
ENCODING 228
SWIDTH 514 0
DWIDTH 10 0
BBX 10 14 0 0
BITMAP
1300
1B00
1B00
0000
1E00
3F80
7F80
73C0
71C0
F1C0
71C0
7FC0
3FC0
1FC0
ENDCHAR
STARTCHAR 00E5
ENCODING 229
SWIDTH 514 0
DWIDTH 10 0
BBX 10 15 0 0
BITMAP
0F00
1900
1900
0F00
0400
1E00
3F80
7F80
73C0
71C0
F1C0
71C0
7FC0
3FC0
1FC0
ENDCHAR
STARTCHAR 00E6
ENCODING 230
SWIDTH 822 0
DWIDTH 16 0
BBX 16 10 0 0
BITMAP
3C78
7FFE
7FFE
07CF
3FBE
7B98
E386
E7FF
FFFE
7C7C
ENDCHAR
STARTCHAR 00E7
ENCODING 231
SWIDTH 360 0
DWIDTH 7 0
BBX 7 15 0 -5
BITMAP
06
3E
7E
78
70
F0
70
7E
3E
1E
08
0E
02
3E
0C
ENDCHAR
STARTCHAR 00E8
ENCODING 232
SWIDTH 514 0
DWIDTH 10 0
BBX 11 14 0 0
BITMAP
1800
0C00
0400
0000
0E00
3F80
7F80
73C0
6F00
E680
71E0
7FC0
3F80
1F00
ENDCHAR
STARTCHAR 00E9
ENCODING 233
SWIDTH 514 0
DWIDTH 10 0
BBX 11 14 0 0
BITMAP
0700
0600
0C00
0000
0E00
3F80
7F80
73C0
6F00
E680
71E0
7FC0
3F80
1F00
ENDCHAR
STARTCHAR 00EA
ENCODING 234
SWIDTH 514 0
DWIDTH 10 0
BBX 11 14 0 0
BITMAP
0E00
1A00
1300
0000
0E00
3F80
7F80
73C0
6F00
E680
71E0
7FC0
3F80
1F00
ENDCHAR
STARTCHAR 00EB
ENCODING 235
SWIDTH 514 0
DWIDTH 10 0
BBX 11 14 0 0
BITMAP
1300
3B00
1B00
0000
0E00
3F80
7F80
73C0
6F00
E680
71E0
7FC0
3F80
1F00
ENDCHAR
STARTCHAR 00EC
ENCODING 236
SWIDTH 205 0
DWIDTH 4 0
BBX 4 14 0 0
BITMAP
C0
60
30
00
70
70
70
70
70
70
70
70
70
70
ENDCHAR
STARTCHAR 00ED
ENCODING 237
SWIDTH 205 0
DWIDTH 4 0
BBX 4 14 1 0
BITMAP
70
60
C0
00
E0
E0
E0
E0
E0
E0
E0
E0
E0
E0
ENDCHAR
STARTCHAR 00EE
ENCODING 238
SWIDTH 205 0
DWIDTH 4 0
BBX 5 14 0 0
BITMAP
70
D0
98
00
70
70
70
70
70
70
70
70
70
70
ENDCHAR
STARTCHAR 00EF
ENCODING 239
SWIDTH 205 0
DWIDTH 4 0
BBX 5 14 0 0
BITMAP
98
D8
D8
00
70
70
70
70
70
70
70
70
70
70
ENDCHAR
STARTCHAR 00F0
ENCODING 240
SWIDTH 514 0
DWIDTH 10 0
BBX 10 14 0 0
BITMAP
3800
1F00
1E00
3E00
0700
3F80
7B80
79C0
71C0
F1C0
71C0
7F80
3F80
1F00
ENDCHAR
STARTCHAR 00F1
ENCODING 241
SWIDTH 514 0
DWIDTH 10 0
BBX 9 14 1 0
BITMAP
0200
3E00
4400
0000
3C00
7E00
FF00
E700
E380
E380
E380
E380
E380
E380
ENDCHAR
STARTCHAR 00F2
ENCODING 242
SWIDTH 514 0
DWIDTH 10 0
BBX 10 14 0 0
BITMAP
1800
0C00
0400
0000
0E00
3F80
7F80
73C0
71C0
F1C0
71C0
7FC0
3F80
1F00
ENDCHAR
STARTCHAR 00F3
ENCODING 243
SWIDTH 514 0
DWIDTH 10 0
BBX 10 14 0 0
BITMAP
0700
0600
0C00
0000
0E00
3F80
7F80
73C0
71C0
F1C0
71C0
7FC0
3F80
1F00
ENDCHAR
STARTCHAR 00F4
ENCODING 244
SWIDTH 514 0
DWIDTH 10 0
BBX 10 14 0 0
BITMAP
0E00
1A00
1300
0000
0E00
3F80
7F80
73C0
71C0
F1C0
71C0
7FC0
3F80
1F00
ENDCHAR
STARTCHAR 00F5
ENCODING 245
SWIDTH 514 0
DWIDTH 10 0
BBX 10 14 0 0
BITMAP
0100
1F00
3200
0000
0E00
3F80
7F80
73C0
71C0
F1C0
71C0
7FC0
3F80
1F00
ENDCHAR
STARTCHAR 00F6
ENCODING 246
SWIDTH 514 0
DWIDTH 10 0
BBX 10 14 0 0
BITMAP
1300
3B00
1B00
0000
0E00
3F80
7F80
73C0
71C0
F1C0
71C0
7FC0
3F80
1F00
ENDCHAR
STARTCHAR 00F7
ENCODING 247
SWIDTH 822 0
DWIDTH 16 0
BBX 12 11 2 0
BITMAP
0600
0700
0600
0000
FFF0
FFF0
0000
0000
0700
0700
0200
ENDCHAR
STARTCHAR 00F8
ENCODING 248
SWIDTH 514 0
DWIDTH 10 0
BBX 9 11 1 0
BITMAP
1D80
7F80
FF00
E780
CF80
DB80
F380
FF80
FF00
FE00
8000
ENDCHAR
STARTCHAR 00F9
ENCODING 249
SWIDTH 514 0
DWIDTH 10 0
BBX 9 14 1 0
BITMAP
3000
1800
0800
0000
E380
E380
E380
E380
E380
E380
E780
FF00
7F00
3E00
ENDCHAR
STARTCHAR 00FA
ENCODING 250
SWIDTH 514 0
DWIDTH 10 0
BBX 9 14 1 0
BITMAP
0C00
0C00
1800
0000
E380
E380
E380
E380
E380
E380
E780
FF00
7F00
3E00
ENDCHAR
STARTCHAR 00FB
ENCODING 251
SWIDTH 514 0
DWIDTH 10 0
BBX 9 14 1 0
BITMAP
1C00
3C00
2600
0000
E380
E380
E380
E380
E380
E380
E780
FF00
7F00
3E00
ENDCHAR
STARTCHAR 00FC
ENCODING 252
SWIDTH 514 0
DWIDTH 10 0
BBX 9 14 1 0
BITMAP
2600
7600
2600
0000
E380
E380
E380
E380
E380
E380
E780
FF00
7F00
3E00
ENDCHAR
STARTCHAR 00FD
ENCODING 253
SWIDTH 514 0
DWIDTH 10 0
BBX 9 18 1 -4
BITMAP
0C00
0C00
1800
0000
E380
E380
E380
E380
E380
E380
E780
FF00
7F00
3E00
1C00
1C00
1C00
1C00
ENDCHAR
STARTCHAR 00FE
ENCODING 254
SWIDTH 514 0
DWIDTH 10 0
BBX 9 18 1 -4
BITMAP
E000
E000
E000
E000
FC00
FF00
FF80
F380
E380
E380
E380
FF80
FF00
FE00
E000
E000
E000
E000
ENDCHAR
STARTCHAR 00FF
ENCODING 255
SWIDTH 514 0
DWIDTH 10 0
BBX 9 18 1 -4
BITMAP
2600
7600
2600
0000
E380
E380
E380
E380
E380
E380
E780
FF00
7F00
3E00
1C00
1C00
1C00
1C00
ENDCHAR
STARTCHAR 0102
ENCODING 258
SWIDTH 617 0
DWIDTH 12 0
BBX 10 18 1 0
BITMAP
2100
3300
1E00
0000
1E00
3F80
7F80
FFC0
E1C0
E1C0
EFC0
EFC0
EFC0
E1C0
E1C0
E1C0
E1C0
E1C0
ENDCHAR
STARTCHAR 0103
ENCODING 259
SWIDTH 514 0
DWIDTH 10 0
BBX 10 14 0 0
BITMAP
1100
1B00
0E00
0000
1E00
3F80
7F80
73C0
71C0
F1C0
71C0
7FC0
3FC0
1FC0
ENDCHAR
STARTCHAR 0106
ENCODING 262
SWIDTH 462 0
DWIDTH 9 0
BBX 8 18 1 0
BITMAP
07
06
0C
00
03
1F
7F
7F
F0
E0
E0
E0
E0
F0
F8
7F
3F
0F
ENDCHAR
STARTCHAR 0107
ENCODING 263
SWIDTH 360 0
DWIDTH 7 0
BBX 7 14 0 0
BITMAP
06
0C
08
00
06
3E
7E
78
70
F0
70
7E
3E
1E
ENDCHAR
STARTCHAR 010C
ENCODING 268
SWIDTH 462 0
DWIDTH 9 0
BBX 8 18 1 0
BITMAP
13
1A
0E
00
03
1F
7F
7F
F0
E0
E0
E0
E0
F0
F8
7F
3F
0F
ENDCHAR
STARTCHAR 010D
ENCODING 269
SWIDTH 360 0
DWIDTH 7 0
BBX 7 14 0 0
BITMAP
32
1E
1C
00
06
3E
7E
78
70
F0
70
7E
3E
1E
ENDCHAR
STARTCHAR 0110
ENCODING 272
SWIDTH 617 0
DWIDTH 12 0
BBX 12 14 0 0
BITMAP
7C00
7F80
7FC0
7FE0
71E0
70F0
FC70
FC70
70F0
70F0
73E0
77C0
7780
7700
ENDCHAR
STARTCHAR 0111
ENCODING 273
SWIDTH 565 0
DWIDTH 11 0
BBX 11 14 0 0
BITMAP
01C0
07E0
07E0
01C0
0FC0
3FC0
7FC0
71C0
71C0
F1C0
71C0
7FC0
3F80
1F00
ENDCHAR
STARTCHAR 011E
ENCODING 286
SWIDTH 771 0
DWIDTH 15 0
BBX 13 18 1 0
BITMAP
0880
0F80
0700
0000
0F80
3FE0
7FF0
7CE0
F040
E000
E3F8
E3F8
E3F8
F078
F8F8
7FF0
3FE0
1FC0
ENDCHAR
STARTCHAR 011F
ENCODING 287
SWIDTH 514 0
DWIDTH 10 0
BBX 10 18 0 -4
BITMAP
1100
1B00
0E00
0000
1E00
3F80
7F80
73C0
71C0
F1C0
71C0
7FC0
3FC0
1FC0
01C0
3FC0
3F80
3F00
ENDCHAR
STARTCHAR 0128
ENCODING 296
SWIDTH 257 0
DWIDTH 5 0
BBX 6 18 0 0
BITMAP
44
F8
80
00
70
70
70
70
70
70
70
70
70
70
70
70
70
70
ENDCHAR
STARTCHAR 0129
ENCODING 297
SWIDTH 205 0
DWIDTH 4 0
BBX 5 14 0 0
BITMAP
08
F8
90
00
70
70
70
70
70
70
70
70
70
70
ENDCHAR
STARTCHAR 0130
ENCODING 304
SWIDTH 257 0
DWIDTH 5 0
BBX 3 18 1 0
BITMAP
60
60
00
00
E0
E0
E0
E0
E0
E0
E0
E0
E0
E0
E0
E0
E0
E0
ENDCHAR
STARTCHAR 0131
ENCODING 305
SWIDTH 205 0
DWIDTH 4 0
BBX 3 10 1 0
BITMAP
E0
E0
E0
E0
E0
E0
E0
E0
E0
E0
ENDCHAR
STARTCHAR 0141
ENCODING 321
SWIDTH 411 0
DWIDTH 8 0
BBX 8 14 0 0
BITMAP
70
70
70
70
74
7C
7C
F0
F0
70
78
7F
3F
1F
ENDCHAR
STARTCHAR 0142
ENCODING 322
SWIDTH 257 0
DWIDTH 5 0
BBX 5 14 0 0
BITMAP
70
70
70
70
70
78
78
F0
F0
70
70
70
70
70
ENDCHAR
STARTCHAR 0152
ENCODING 338
SWIDTH 1028 0
DWIDTH 20 0
BBX 18 14 1 0
BITMAP
0F00C0
3FC7C0
7FEFC0
7FFF80
F07C00
E03800
E03FC0
E03FC0
E03FC0
F07C00
F8FE00
7FFFC0
3FEFC0
1FC3C0
ENDCHAR
STARTCHAR 0153
ENCODING 339
SWIDTH 874 0
DWIDTH 17 0
BBX 17 10 0 0
BITMAP
0E3C00
3FFE00
7FFF00
73CF00
71DE00
F1D800
71E380
7FFF80
3FFF00
1F3E00
ENDCHAR
STARTCHAR 015E
ENCODING 350
SWIDTH 514 0
DWIDTH 10 0
BBX 9 19 1 -5
BITMAP
1F00
7F00
FF00
FF00
E000
F800
7C00
3F00
1F00
0780
0780
FF80
FF00
FE00
0800
0E00
0600
3E00
0800
ENDCHAR
STARTCHAR 015F
ENCODING 351
SWIDTH 411 0
DWIDTH 8 0
BBX 7 15 1 -5
BITMAP
3C
FC
FC
E0
F8
7C
1E
FE
FE
FC
10
1C
0C
7C
10
ENDCHAR
STARTCHAR 0160
ENCODING 352
SWIDTH 514 0
DWIDTH 10 0
BBX 9 18 1 0
BITMAP
2600
3C00
1C00
0000
1F00
7F00
FF00
FF00
E000
F800
7C00
3F00
1F00
0780
0780
FF80
FF00
FE00
ENDCHAR
STARTCHAR 0161
ENCODING 353
SWIDTH 411 0
DWIDTH 8 0
BBX 7 14 1 0
BITMAP
4C
68
38
00
3C
FC
FC
E0
F8
7C
1E
FE
FE
FC
ENDCHAR
STARTCHAR 0168
ENCODING 360
SWIDTH 617 0
DWIDTH 12 0
BBX 10 18 1 0
BITMAP
0100
3F00
2000
0000
E1C0
E1C0
E1C0
E1C0
E1C0
E1C0
E1C0
E1C0
E1C0
E1C0
F3C0
7FC0
7F80
3F00
ENDCHAR
STARTCHAR 0169
ENCODING 361
SWIDTH 514 0
DWIDTH 10 0
BBX 9 14 1 0
BITMAP
0200
3E00
4400
0000
E380
E380
E380
E380
E380
E380
E780
FF00
7F00
3E00
ENDCHAR
STARTCHAR 0178
ENCODING 376
SWIDTH 565 0
DWIDTH 11 0
BBX 9 18 1 0
BITMAP
3600
3600
3200
0000
E380
E380
E380
E380
E380
E380
FF80
7F00
3F00
1C00
1C00
1C00
1C00
1C00
ENDCHAR
STARTCHAR 017D
ENCODING 381
SWIDTH 514 0
DWIDTH 10 0
BBX 10 18 0 0
BITMAP
1300
1E00
0E00
0000
7F80
7FC0
7FC0
7FC0
0780
0F00
0F00
1E00
3C00
7C00
7800
FFC0
FFC0
7FC0
ENDCHAR
STARTCHAR 017E
ENCODING 382
SWIDTH 411 0
DWIDTH 8 0
BBX 8 14 0 0
BITMAP
26
34
1C
00
7E
7F
7F
0F
1E
3C
78
7F
FF
7F
ENDCHAR
STARTCHAR 0192
ENCODING 402
SWIDTH 514 0
DWIDTH 10 0
BBX 10 18 0 -4
BITMAP
01C0
07C0
07C0
0F00
0E00
7FC0
7FC0
7FC0
0E00
0E00
1E00
1E00
1C00
1C00
1C00
FC00
FC00
F800
ENDCHAR
STARTCHAR 01A0
ENCODING 416
SWIDTH 771 0
DWIDTH 15 0
BBX 14 15 1 0
BITMAP
001C
0F98
3FF8
7FF0
7FF0
F078
E038
E038
E038
E038
F078
F8F8
7FF0
3FE0
1FC0
ENDCHAR
STARTCHAR 01A1
ENCODING 417
SWIDTH 514 0
DWIDTH 10 0
BBX 11 11 0 0
BITMAP
00E0
0EE0
3FC0
7FC0
73C0
71C0
F1C0
71C0
7FC0
3F80
1F00
ENDCHAR
STARTCHAR 01AF
ENCODING 431
SWIDTH 668 0
DWIDTH 13 0
BBX 13 15 1 0
BITMAP
0038
E1F0
E1F0
E1E0
E1E0
E1C0
E1C0
E1C0
E1C0
E1C0
E1C0
F3C0
7FC0
7F80
3F00
ENDCHAR
STARTCHAR 01B0
ENCODING 432
SWIDTH 565 0
DWIDTH 11 0
BBX 11 11 1 0
BITMAP
00E0
E3C0
E3C0
E380
E380
E380
E380
E780
FF00
7F00
3E00
ENDCHAR
STARTCHAR 02C6
ENCODING 710
SWIDTH 462 0
DWIDTH 9 0
BBX 5 3 2 11
BITMAP
70
78
C8
ENDCHAR
STARTCHAR 02C7
ENCODING 711
SWIDTH 462 0
DWIDTH 9 0
BBX 5 3 2 11
BITMAP
C8
78
70
ENDCHAR
STARTCHAR 02C9
ENCODING 713
SWIDTH 462 0
DWIDTH 9 0
BBX 6 1 2 12
BITMAP
FC
ENDCHAR
STARTCHAR 02D8
ENCODING 728
SWIDTH 462 0
DWIDTH 9 0
BBX 6 3 2 11
BITMAP
84
F8
78
ENDCHAR
STARTCHAR 02D9
ENCODING 729
SWIDTH 462 0
DWIDTH 9 0
BBX 2 3 4 11
BITMAP
C0
C0
80
ENDCHAR
STARTCHAR 02DA
ENCODING 730
SWIDTH 462 0
DWIDTH 9 0
BBX 5 5 2 11
BITMAP
30
78
C8
C8
78
ENDCHAR
STARTCHAR 02DB
ENCODING 731
SWIDTH 462 0
DWIDTH 9 0
BBX 3 4 3 -4
BITMAP
40
40
C0
E0
ENDCHAR
STARTCHAR 02DC
ENCODING 732
SWIDTH 462 0
DWIDTH 9 0
BBX 6 3 2 11
BITMAP
04
F8
90
ENDCHAR
STARTCHAR 02DD
ENCODING 733
SWIDTH 462 0
DWIDTH 9 0
BBX 5 3 3 11
BITMAP
58
D8
90
ENDCHAR
STARTCHAR 0394
ENCODING 916
SWIDTH 668 0
DWIDTH 13 0
BBX 14 14 0 0
BITMAP
0780
0780
0FC0
0FC0
1FC0
1DE0
1CE0
3CF0
3870
3870
7878
7FF8
7FF8
FFFC
ENDCHAR
STARTCHAR 03A9
ENCODING 937
SWIDTH 771 0
DWIDTH 15 0
BBX 15 14 0 0
BITMAP
0FE0
1FF8
3FFC
7C3C
781C
781E
781E
781C
781C
383C
1C78
FC7E
FC7E
FC7E
ENDCHAR
STARTCHAR 03BC
ENCODING 956
SWIDTH 617 0
DWIDTH 12 0
BBX 12 14 0 -4
BITMAP
38F0
38F0
78E0
78E0
70E0
70E0
71E0
7BE0
FFE0
FFC0
E000
E000
E000
E000
ENDCHAR
STARTCHAR 03C0
ENCODING 960
SWIDTH 720 0
DWIDTH 14 0
BBX 14 10 0 0
BITMAP
7FFC
FFFC
DE70
1E70
1E70
1C70
1CF0
1CF0
1CE0
3CE0
ENDCHAR
STARTCHAR 1EA0
ENCODING 7840
SWIDTH 617 0
DWIDTH 12 0
BBX 10 19 1 -5
BITMAP
1E00
3F80
7F80
FFC0
E1C0
E1C0
EFC0
EFC0
EFC0
E1C0
E1C0
E1C0
E1C0
E1C0
0000
0C00
1E00
1E00
0E00
ENDCHAR
STARTCHAR 1EA1
ENCODING 7841
SWIDTH 514 0
DWIDTH 10 0
BBX 10 15 0 -5
BITMAP
1E00
3F80
7F80
73C0
71C0
F1C0
71C0
7FC0
3FC0
1FC0
0000
0C00
0E00
0E00
0E00
ENDCHAR
STARTCHAR 1EA2
ENCODING 7842
SWIDTH 617 0
DWIDTH 12 0
BBX 10 19 1 0
BITMAP
0C00
1E00
0200
0600
0400
1E00
3F80
7F80
FFC0
E1C0
E1C0
EFC0
EFC0
EFC0
E1C0
E1C0
E1C0
E1C0
E1C0
ENDCHAR
STARTCHAR 1EA3
ENCODING 7843
SWIDTH 514 0
DWIDTH 10 0
BBX 10 15 0 0
BITMAP
0E00
0A00
0200
0600
0000
1E00
3F80
7F80
73C0
71C0
F1C0
71C0
7FC0
3FC0
1FC0
ENDCHAR
STARTCHAR 1EA4
ENCODING 7844
SWIDTH 617 0
DWIDTH 12 0
BBX 10 22 1 0
BITMAP
0E00
0C00
1800
1000
0C00
1E00
1200
3100
1E00
3F80
7F80
FFC0
E1C0
E1C0
EFC0
EFC0
EFC0
E1C0
E1C0
E1C0
E1C0
E1C0
ENDCHAR
STARTCHAR 1EA5
ENCODING 7845
SWIDTH 514 0
DWIDTH 10 0
BBX 10 18 0 0
BITMAP
0600
0C00
1800
0000
0E00
1A00
1300
0000
1E00
3F80
7F80
73C0
71C0
F1C0
71C0
7FC0
3FC0
1FC0
ENDCHAR
STARTCHAR 1EA6
ENCODING 7846
SWIDTH 617 0
DWIDTH 12 0
BBX 10 22 1 0
BITMAP
1C00
0C00
0600
0200
0C00
1E00
1200
3100
1E00
3F80
7F80
FFC0
E1C0
E1C0
EFC0
EFC0
EFC0
E1C0
E1C0
E1C0
E1C0
E1C0
ENDCHAR
STARTCHAR 1EA7
ENCODING 7847
SWIDTH 514 0
DWIDTH 10 0
BBX 10 18 0 0
BITMAP
0C00
0600
0200
0000
0E00
1A00
1300
0000
1E00
3F80
7F80
73C0
71C0
F1C0
71C0
7FC0
3FC0
1FC0
ENDCHAR
STARTCHAR 1EA8
ENCODING 7848
SWIDTH 617 0
DWIDTH 12 0
BBX 10 22 1 0
BITMAP
0180
02C0
00C0
0180
0C00
1E00
1200
3100
1E00
3F80
7F80
FFC0
E1C0
E1C0
EFC0
EFC0
EFC0
E1C0
E1C0
E1C0
E1C0
E1C0
ENDCHAR
STARTCHAR 1EA9
ENCODING 7849
SWIDTH 514 0
DWIDTH 10 0
BBX 10 18 0 0
BITMAP
01C0
0240
01C0
0100
0E00
1A00
1300
0000
1E00
3F80
7F80
73C0
71C0
F1C0
71C0
7FC0
3FC0
1FC0
ENDCHAR
STARTCHAR 1EAA
ENCODING 7850
SWIDTH 617 0
DWIDTH 12 0
BBX 10 21 1 0
BITMAP
0D80
1F00
1000
0C00
1E00
1200
3100
1E00
3F80
7F80
FFC0
E1C0
E1C0
EFC0
EFC0
EFC0
E1C0
E1C0
E1C0
E1C0
E1C0
ENDCHAR
STARTCHAR 1EAB
ENCODING 7851
SWIDTH 514 0
DWIDTH 10 0
BBX 10 17 0 0
BITMAP
0F80
1F00
0000
0E00
1A00
1300
0000
1E00
3F80
7F80
73C0
71C0
F1C0
71C0
7FC0
3FC0
1FC0
ENDCHAR
STARTCHAR 1EAC
ENCODING 7852
SWIDTH 617 0
DWIDTH 12 0
BBX 10 23 1 -5
BITMAP
0C00
1E00
1200
3100
1E00
3F80
7F80
FFC0
E1C0
E1C0
EFC0
EFC0
EFC0
E1C0
E1C0
E1C0
E1C0
E1C0
0000
0C00
1E00
1E00
0E00
ENDCHAR
STARTCHAR 1EAD
ENCODING 7853
SWIDTH 514 0
DWIDTH 10 0
BBX 10 19 0 -5
BITMAP
0E00
1A00
1300
0000
1E00
3F80
7F80
73C0
71C0
F1C0
71C0
7FC0
3FC0
1FC0
0000
0C00
0E00
0E00
0E00
ENDCHAR
STARTCHAR 1EAE
ENCODING 7854
SWIDTH 617 0
DWIDTH 12 0
BBX 10 22 1 0
BITMAP
0700
0600
0C00
0800
2100
3300
1E00
0000
1E00
3F80
7F80
FFC0
E1C0
E1C0
EFC0
EFC0
EFC0
E1C0
E1C0
E1C0
E1C0
E1C0
ENDCHAR
STARTCHAR 1EAF
ENCODING 7855
SWIDTH 514 0
DWIDTH 10 0
BBX 10 18 0 0
BITMAP
0700
0600
0C00
0000
1100
1B00
0E00
0000
1E00
3F80
7F80
73C0
71C0
F1C0
71C0
7FC0
3FC0
1FC0
ENDCHAR
STARTCHAR 1EB0
ENCODING 7856
SWIDTH 617 0
DWIDTH 12 0
BBX 10 22 1 0
BITMAP
3800
1800
0C00
0400
2100
3300
1E00
0000
1E00
3F80
7F80
FFC0
E1C0
E1C0
EFC0
EFC0
EFC0
E1C0
E1C0
E1C0
E1C0
E1C0
ENDCHAR
STARTCHAR 1EB1
ENCODING 7857
SWIDTH 514 0
DWIDTH 10 0
BBX 10 18 0 0
BITMAP
1800
0C00
0400
0000
1100
1B00
0E00
0000
1E00
3F80
7F80
73C0
71C0
F1C0
71C0
7FC0
3FC0
1FC0
ENDCHAR
STARTCHAR 1EB2
ENCODING 7858
SWIDTH 617 0
DWIDTH 12 0
BBX 10 22 1 0
BITMAP
0C00
1A00
0200
0400
2100
3300
1E00
0000
1E00
3F80
7F80
FFC0
E1C0
E1C0
EFC0
EFC0
EFC0
E1C0
E1C0
E1C0
E1C0
E1C0
ENDCHAR
STARTCHAR 1EB3
ENCODING 7859
SWIDTH 514 0
DWIDTH 10 0
BBX 10 18 0 0
BITMAP
0E00
0A00
0600
0400
1100
1B00
0E00
0000
1E00
3F80
7F80
73C0
71C0
F1C0
71C0
7FC0
3FC0
1FC0
ENDCHAR
STARTCHAR 1EB4
ENCODING 7860
SWIDTH 617 0
DWIDTH 12 0
BBX 10 21 1 0
BITMAP
1900
1F00
2000
2100
3300
1E00
0000
1E00
3F80
7F80
FFC0
E1C0
E1C0
EFC0
EFC0
EFC0
E1C0
E1C0
E1C0
E1C0
E1C0
ENDCHAR
STARTCHAR 1EB5
ENCODING 7861
SWIDTH 514 0
DWIDTH 10 0
BBX 10 17 0 0
BITMAP
1F00
1700
0000
1100
1B00
0E00
0000
1E00
3F80
7F80
73C0
71C0
F1C0
71C0
7FC0
3FC0
1FC0
ENDCHAR
STARTCHAR 1EB6
ENCODING 7862
SWIDTH 617 0
DWIDTH 12 0
BBX 10 23 1 -5
BITMAP
2100
3300
1E00
0000
1E00
3F80
7F80
FFC0
E1C0
E1C0
EFC0
EFC0
EFC0
E1C0
E1C0
E1C0
E1C0
E1C0
0000
0C00
1E00
1E00
0E00
ENDCHAR
STARTCHAR 1EB7
ENCODING 7863
SWIDTH 514 0
DWIDTH 10 0
BBX 10 19 0 -5
BITMAP
1100
1B00
0E00
0000
1E00
3F80
7F80
73C0
71C0
F1C0
71C0
7FC0
3FC0
1FC0
0000
0C00
0E00
0E00
0E00
ENDCHAR
STARTCHAR 1EB8
ENCODING 7864
SWIDTH 514 0
DWIDTH 10 0
BBX 8 19 1 -5
BITMAP
03
1F
7F
7E
F0
E0
FF
FF
FF
F0
F8
7F
3F
0F
00
0C
0E
1E
0E
ENDCHAR
STARTCHAR 1EB9
ENCODING 7865
SWIDTH 514 0
DWIDTH 10 0
BBX 11 15 0 -5
BITMAP
0E00
3F80
7F80
73C0
6F00
E680
71E0
7FC0
3F80
1F00
0000
0C00
0E00
1E00
0E00
ENDCHAR
STARTCHAR 1EBA
ENCODING 7866
SWIDTH 514 0
DWIDTH 10 0
BBX 8 19 1 0
BITMAP
02
07
01
03
02
03
1F
7F
7E
F0
E0
FF
FF
FF
F0
F8
7F
3F
0F
ENDCHAR
STARTCHAR 1EBB
ENCODING 7867
SWIDTH 514 0
DWIDTH 10 0
BBX 11 15 0 0
BITMAP
0E00
0A00
0200
0600
0000
0E00
3F80
7F80
73C0
6F00
E680
71E0
7FC0
3F80
1F00
ENDCHAR
STARTCHAR 1EBC
ENCODING 7868
SWIDTH 514 0
DWIDTH 10 0
BBX 8 18 1 0
BITMAP
09
1F
10
00
03
1F
7F
7E
F0
E0
FF
FF
FF
F0
F8
7F
3F
0F
ENDCHAR
STARTCHAR 1EBD
ENCODING 7869
SWIDTH 514 0
DWIDTH 10 0
BBX 11 14 0 0
BITMAP
0100
1F00
2200
0000
0E00
3F80
7F80
73C0
6F00
E680
71E0
7FC0
3F80
1F00
ENDCHAR
STARTCHAR 1EBE
ENCODING 7870
SWIDTH 514 0
DWIDTH 10 0
BBX 8 22 1 0
BITMAP
06
0C
08
10
0E
0E
1B
31
03
1F
7F
7E
F0
E0
FF
FF
FF
F0
F8
7F
3F
0F
ENDCHAR
STARTCHAR 1EBF
ENCODING 7871
SWIDTH 514 0
DWIDTH 10 0
BBX 11 18 0 0
BITMAP
0E00
0C00
1800
0000
0E00
1A00
1300
0000
0E00
3F80
7F80
73C0
6F00
E680
71E0
7FC0
3F80
1F00
ENDCHAR
STARTCHAR 1EC0
ENCODING 7872
SWIDTH 514 0
DWIDTH 10 0
BBX 8 22 1 0
BITMAP
0C
06
06
03
0E
0E
1B
31
03
1F
7F
7E
F0
E0
FF
FF
FF
F0
F8
7F
3F
0F
ENDCHAR
STARTCHAR 1EC1
ENCODING 7873
SWIDTH 514 0
DWIDTH 10 0
BBX 11 18 0 0
BITMAP
0C00
0600
0200
0000
0E00
1A00
1300
0000
0E00
3F80
7F80
73C0
6F00
E680
71E0
7FC0
3F80
1F00
ENDCHAR
STARTCHAR 1EC2
ENCODING 7874
SWIDTH 514 0
DWIDTH 10 0
BBX 10 22 1 0
BITMAP
0180
02C0
00C0
0180
0E00
0E00
1B00
3100
0300
1F00
7F00
7E00
F000
E000
FF00
FF00
FF00
F000
F800
7F00
3F00
0F00
ENDCHAR
STARTCHAR 1EC3
ENCODING 7875
SWIDTH 514 0
DWIDTH 10 0
BBX 11 18 0 0
BITMAP
0180
0240
01C0
0100
0E00
1A00
1300
0000
0E00
3F80
7F80
73C0
6F00
E680
71E0
7FC0
3F80
1F00
ENDCHAR
STARTCHAR 1EC4
ENCODING 7876
SWIDTH 514 0
DWIDTH 10 0
BBX 9 21 1 0
BITMAP
0C80
1F00
1000
0E00
0E00
1B00
3100
0300
1F00
7F00
7E00
F000
E000
FF00
FF00
FF00
F000
F800
7F00
3F00
0F00
ENDCHAR
STARTCHAR 1EC5
ENCODING 7877
SWIDTH 514 0
DWIDTH 10 0
BBX 11 17 0 0
BITMAP
0F80
1F00
0000
0E00
1A00
1300
0000
0E00
3F80
7F80
73C0
6F00
E680
71E0
7FC0
3F80
1F00
ENDCHAR
STARTCHAR 1EC6
ENCODING 7878
SWIDTH 514 0
DWIDTH 10 0
BBX 8 23 1 -5
BITMAP
0E
0E
1B
31
03
1F
7F
7E
F0
E0
FF
FF
FF
F0
F8
7F
3F
0F
00
0C
0E
1E
0E
ENDCHAR
STARTCHAR 1EC7
ENCODING 7879
SWIDTH 514 0
DWIDTH 10 0
BBX 11 19 0 -5
BITMAP
0E00
1A00
1300
0000
0E00
3F80
7F80
73C0
6F00
E680
71E0
7FC0
3F80
1F00
0000
0C00
0E00
1E00
0E00
ENDCHAR
STARTCHAR 1EC8
ENCODING 7880
SWIDTH 257 0
DWIDTH 5 0
BBX 4 19 1 0
BITMAP
60
F0
30
60
40
E0
E0
E0
E0
E0
E0
E0
E0
E0
E0
E0
E0
E0
E0
ENDCHAR
STARTCHAR 1EC9
ENCODING 7881
SWIDTH 205 0
DWIDTH 4 0
BBX 3 15 1 0
BITMAP
E0
A0
20
60
00
E0
E0
E0
E0
E0
E0
E0
E0
E0
E0
ENDCHAR
STARTCHAR 1ECA
ENCODING 7882
SWIDTH 257 0
DWIDTH 5 0
BBX 4 19 1 -5
BITMAP
E0
E0
E0
E0
E0
E0
E0
E0
E0
E0
E0
E0
E0
E0
00
60
F0
F0
E0
ENDCHAR
STARTCHAR 1ECB
ENCODING 7883
SWIDTH 205 0
DWIDTH 4 0
BBX 3 19 1 -5
BITMAP
E0
E0
E0
40
E0
E0
E0
E0
E0
E0
E0
E0
E0
E0
00
C0
E0
E0
E0
ENDCHAR
STARTCHAR 1ECC
ENCODING 7884
SWIDTH 771 0
DWIDTH 15 0
BBX 13 19 1 -5
BITMAP
0F80
3FE0
7FF0
7FF0
F078
E038
E038
E038
E038
F078
F8F8
7FF0
3FE0
1FC0
0000
0200
0700
0700
0700
ENDCHAR
STARTCHAR 1ECD
ENCODING 7885
SWIDTH 514 0
DWIDTH 10 0
BBX 10 15 0 -5
BITMAP
0E00
3F80
7F80
73C0
71C0
F1C0
71C0
7FC0
3F80
1F00
0000
0C00
0E00
1E00
0E00
ENDCHAR
STARTCHAR 1ECE
ENCODING 7886
SWIDTH 771 0
DWIDTH 15 0
BBX 13 19 1 0
BITMAP
0200
0700
0180
0300
0200
0F80
3FE0
7FF0
7FF0
F078
E038
E038
E038
E038
F078
F8F8
7FF0
3FE0
1FC0
ENDCHAR
STARTCHAR 1ECF
ENCODING 7887
SWIDTH 514 0
DWIDTH 10 0
BBX 10 15 0 0
BITMAP
0E00
0A00
0200
0600
0000
0E00
3F80
7F80
73C0
71C0
F1C0
71C0
7FC0
3F80
1F00
ENDCHAR
STARTCHAR 1ED0
ENCODING 7888
SWIDTH 771 0
DWIDTH 15 0
BBX 13 22 1 0
BITMAP
0300
0600
0400
0C00
0700
0700
0D80
0880
0F80
3FE0
7FF0
7FF0
F078
E038
E038
E038
E038
F078
F8F8
7FF0
3FE0
1FC0
ENDCHAR
STARTCHAR 1ED1
ENCODING 7889
SWIDTH 514 0
DWIDTH 10 0
BBX 10 18 0 0
BITMAP
0E00
0C00
1800
0000
0E00
1A00
1300
0000
0E00
3F80
7F80
73C0
71C0
F1C0
71C0
7FC0
3F80
1F00
ENDCHAR
STARTCHAR 1ED2
ENCODING 7890
SWIDTH 771 0
DWIDTH 15 0
BBX 13 22 1 0
BITMAP
0600
0300
0100
0180
0700
0700
0D80
0880
0F80
3FE0
7FF0
7FF0
F078
E038
E038
E038
E038
F078
F8F8
7FF0
3FE0
1FC0
ENDCHAR
STARTCHAR 1ED3
ENCODING 7891
SWIDTH 514 0
DWIDTH 10 0
BBX 10 18 0 0
BITMAP
0C00
0600
0200
0000
0E00
1A00
1300
0000
0E00
3F80
7F80
73C0
71C0
F1C0
71C0
7FC0
3F80
1F00
ENDCHAR
STARTCHAR 1ED4
ENCODING 7892
SWIDTH 771 0
DWIDTH 15 0
BBX 13 22 1 0
BITMAP
00C0
01A0
0020
0040
0700
0700
0D80
0880
0F80
3FE0
7FF0
7FF0
F078
E038
E038
E038
E038
F078
F8F8
7FF0
3FE0
1FC0
ENDCHAR
STARTCHAR 1ED5
ENCODING 7893
SWIDTH 514 0
DWIDTH 10 0
BBX 10 18 0 0
BITMAP
0180
0240
01C0
0100
0E00
1A00
1300
0000
0E00
3F80
7F80
73C0
71C0
F1C0
71C0
7FC0
3F80
1F00
ENDCHAR
STARTCHAR 1ED6
ENCODING 7894
SWIDTH 771 0
DWIDTH 15 0
BBX 13 21 1 0
BITMAP
0640
0F80
0800
0700
0700
0D80
0880
0F80
3FE0
7FF0
7FF0
F078
E038
E038
E038
E038
F078
F8F8
7FF0
3FE0
1FC0
ENDCHAR
STARTCHAR 1ED7
ENCODING 7895
SWIDTH 514 0
DWIDTH 10 0
BBX 10 17 0 0
BITMAP
0F80
1F00
0000
0E00
1A00
1300
0000
0E00
3F80
7F80
73C0
71C0
F1C0
71C0
7FC0
3F80
1F00
ENDCHAR
STARTCHAR 1ED8
ENCODING 7896
SWIDTH 771 0
DWIDTH 15 0
BBX 13 23 1 -5
BITMAP
0700
0700
0D80
0880
0F80
3FE0
7FF0
7FF0
F078
E038
E038
E038
E038
F078
F8F8
7FF0
3FE0
1FC0
0000
0200
0700
0700
0700
ENDCHAR
STARTCHAR 1ED9
ENCODING 7897
SWIDTH 514 0
DWIDTH 10 0
BBX 10 19 0 -5
BITMAP
0E00
1A00
1300
0000
0E00
3F80
7F80
73C0
71C0
F1C0
71C0
7FC0
3F80
1F00
0000
0C00
0E00
1E00
0E00
ENDCHAR
STARTCHAR 1EDA
ENCODING 7898
SWIDTH 771 0
DWIDTH 15 0
BBX 14 18 1 0
BITMAP
0380
0300
0600
001C
0F98
3FF8
7FF0
7FF0
F078
E038
E038
E038
E038
F078
F8F8
7FF0
3FE0
1FC0
ENDCHAR
STARTCHAR 1EDB
ENCODING 7899
SWIDTH 514 0
DWIDTH 10 0
BBX 11 14 0 0
BITMAP
0700
0600
0C00
00E0
0EE0
3FC0
7FC0
73C0
71C0
F1C0
71C0
7FC0
3F80
1F00
ENDCHAR
STARTCHAR 1EDC
ENCODING 7900
SWIDTH 771 0
DWIDTH 15 0
BBX 14 18 1 0
BITMAP
0E00
0600
0300
001C
0F98
3FF8
7FF0
7FF0
F078
E038
E038
E038
E038
F078
F8F8
7FF0
3FE0
1FC0
ENDCHAR
STARTCHAR 1EDD
ENCODING 7901
SWIDTH 514 0
DWIDTH 10 0
BBX 11 14 0 0
BITMAP
1800
0C00
0400
00E0
0EE0
3FC0
7FC0
73C0
71C0
F1C0
71C0
7FC0
3F80
1F00
ENDCHAR
STARTCHAR 1EDE
ENCODING 7902
SWIDTH 771 0
DWIDTH 15 0
BBX 14 19 1 0
BITMAP
0200
0700
0180
0300
021C
0F98
3FF8
7FF0
7FF0
F078
E038
E038
E038
E038
F078
F8F8
7FF0
3FE0
1FC0
ENDCHAR
STARTCHAR 1EDF
ENCODING 7903
SWIDTH 514 0
DWIDTH 10 0
BBX 11 15 0 0
BITMAP
0E00
0A00
0200
0600
00E0
0EE0
3FC0
7FC0
73C0
71C0
F1C0
71C0
7FC0
3F80
1F00
ENDCHAR
STARTCHAR 1EE0
ENCODING 7904
SWIDTH 771 0
DWIDTH 15 0
BBX 14 18 1 0
BITMAP
0480
0F80
0800
001C
0F98
3FF8
7FF0
7FF0
F078
E038
E038
E038
E038
F078
F8F8
7FF0
3FE0
1FC0
ENDCHAR
STARTCHAR 1EE1
ENCODING 7905
SWIDTH 514 0
DWIDTH 10 0
BBX 11 14 0 0
BITMAP
0100
1F00
3200
00E0
0EE0
3FC0
7FC0
73C0
71C0
F1C0
71C0
7FC0
3F80
1F00
ENDCHAR
STARTCHAR 1EE2
ENCODING 7906
SWIDTH 771 0
DWIDTH 15 0
BBX 14 20 1 -5
BITMAP
001C
0F98
3FF8
7FF0
7FF0
F078
E038
E038
E038
E038
F078
F8F8
7FF0
3FE0
1FC0
0000
0200
0700
0700
0700
ENDCHAR
STARTCHAR 1EE3
ENCODING 7907
SWIDTH 514 0
DWIDTH 10 0
BBX 11 16 0 -5
BITMAP
00E0
0EE0
3FC0
7FC0
73C0
71C0
F1C0
71C0
7FC0
3F80
1F00
0000
0C00
0E00
1E00
0E00
ENDCHAR
STARTCHAR 1EE4
ENCODING 7908
SWIDTH 617 0
DWIDTH 12 0
BBX 10 19 1 -5
BITMAP
E1C0
E1C0
E1C0
E1C0
E1C0
E1C0
E1C0
E1C0
E1C0
E1C0
F3C0
7FC0
7F80
3F00
0000
0C00
1E00
1E00
0E00
ENDCHAR
STARTCHAR 1EE5
ENCODING 7909
SWIDTH 514 0
DWIDTH 10 0
BBX 9 15 1 -5
BITMAP
E380
E380
E380
E380
E380
E380
E780
FF00
7F00
3E00
0000
1800
3C00
3C00
1C00
ENDCHAR
STARTCHAR 1EE6
ENCODING 7910
SWIDTH 617 0
DWIDTH 12 0
BBX 10 19 1 0
BITMAP
0C00
1E00
0200
0600
0400
E1C0
E1C0
E1C0
E1C0
E1C0
E1C0
E1C0
E1C0
E1C0
E1C0
F3C0
7FC0
7F80
3F00
ENDCHAR
STARTCHAR 1EE7
ENCODING 7911
SWIDTH 514 0
DWIDTH 10 0
BBX 9 15 1 0
BITMAP
1800
3400
0400
0800
0000
E380
E380
E380
E380
E380
E380
E780
FF00
7F00
3E00
ENDCHAR
STARTCHAR 1EE8
ENCODING 7912
SWIDTH 668 0
DWIDTH 13 0
BBX 13 18 1 0
BITMAP
0600
0C00
0800
0038
E1F0
E1F0
E1E0
E1E0
E1C0
E1C0
E1C0
E1C0
E1C0
E1C0
F3C0
7FC0
7F80
3F00
ENDCHAR
STARTCHAR 1EE9
ENCODING 7913
SWIDTH 565 0
DWIDTH 11 0
BBX 11 14 1 0
BITMAP
0C00
0C00
1800
00E0
E3C0
E3C0
E380
E380
E380
E380
E780
FF00
7F00
3E00
ENDCHAR
STARTCHAR 1EEA
ENCODING 7914
SWIDTH 668 0
DWIDTH 13 0
BBX 13 18 1 0
BITMAP
1800
0C00
0400
0038
E1F0
E1F0
E1E0
E1E0
E1C0
E1C0
E1C0
E1C0
E1C0
E1C0
F3C0
7FC0
7F80
3F00
ENDCHAR
STARTCHAR 1EEB
ENCODING 7915
SWIDTH 565 0
DWIDTH 11 0
BBX 11 14 1 0
BITMAP
3000
1800
0800
00E0
E3C0
E3C0
E380
E380
E380
E380
E780
FF00
7F00
3E00
ENDCHAR
STARTCHAR 1EEC
ENCODING 7916
SWIDTH 668 0
DWIDTH 13 0
BBX 13 19 1 0
BITMAP
0C00
1E00
0200
0600
0438
E1F0
E1F0
E1E0
E1E0
E1C0
E1C0
E1C0
E1C0
E1C0
E1C0
F3C0
7FC0
7F80
3F00
ENDCHAR
STARTCHAR 1EED
ENCODING 7917
SWIDTH 565 0
DWIDTH 11 0
BBX 11 15 1 0
BITMAP
1800
3400
0400
0800
00E0
E3C0
E3C0
E380
E380
E380
E380
E780
FF00
7F00
3E00
ENDCHAR
STARTCHAR 1EEE
ENCODING 7918
SWIDTH 668 0
DWIDTH 13 0
BBX 13 18 1 0
BITMAP
0100
3F00
2000
0038
E1F0
E1F0
E1E0
E1E0
E1C0
E1C0
E1C0
E1C0
E1C0
E1C0
F3C0
7FC0
7F80
3F00
ENDCHAR
STARTCHAR 1EEF
ENCODING 7919
SWIDTH 565 0
DWIDTH 11 0
BBX 11 14 1 0
BITMAP
0200
3E00
4400
00E0
E3C0
E3C0
E380
E380
E380
E380
E780
FF00
7F00
3E00
ENDCHAR
STARTCHAR 1EF0
ENCODING 7920
SWIDTH 668 0
DWIDTH 13 0
BBX 13 20 1 -5
BITMAP
0038
E1F0
E1F0
E1E0
E1E0
E1C0
E1C0
E1C0
E1C0
E1C0
E1C0
F3C0
7FC0
7F80
3F00
0000
0C00
1E00
1E00
0E00
ENDCHAR
STARTCHAR 1EF1
ENCODING 7921
SWIDTH 565 0
DWIDTH 11 0
BBX 11 16 1 -5
BITMAP
00E0
E3C0
E3C0
E380
E380
E380
E380
E780
FF00
7F00
3E00
0000
1800
3C00
3C00
1C00
ENDCHAR
STARTCHAR 1EF2
ENCODING 7922
SWIDTH 565 0
DWIDTH 11 0
BBX 9 18 1 0
BITMAP
3800
1800
0C00
0000
E380
E380
E380
E380
E380
E380
FF80
7F00
3F00
1C00
1C00
1C00
1C00
1C00
ENDCHAR
STARTCHAR 1EF3
ENCODING 7923
SWIDTH 514 0
DWIDTH 10 0
BBX 9 18 1 -4
BITMAP
3000
1800
0800
0000
E380
E380
E380
E380
E380
E380
E780
FF00
7F00
3E00
1C00
1C00
1C00
1C00
ENDCHAR
STARTCHAR 1EF4
ENCODING 7924
SWIDTH 565 0
DWIDTH 11 0
BBX 9 19 1 -5
BITMAP
E380
E380
E380
E380
E380
E380
FF80
7F00
3F00
1C00
1C00
1C00
1C00
1C00
0000
0C00
1C00
1E00
1C00
ENDCHAR
STARTCHAR 1EF5
ENCODING 7925
SWIDTH 514 0
DWIDTH 10 0
BBX 9 15 1 -5
BITMAP
E380
E380
E380
E380
E380
E380
E780
FF00
7F00
3E00
1C00
1F00
1F80
1F80
0380
ENDCHAR
STARTCHAR 1EF6
ENCODING 7926
SWIDTH 565 0
DWIDTH 11 0
BBX 9 19 1 0
BITMAP
0800
1C00
0600
0C00
0800
E380
E380
E380
E380
E380
E380
FF80
7F00
3F00
1C00
1C00
1C00
1C00
1C00
ENDCHAR
STARTCHAR 1EF7
ENCODING 7927
SWIDTH 514 0
DWIDTH 10 0
BBX 9 19 1 -4
BITMAP
1800
3400
0400
0800
0000
E380
E380
E380
E380
E380
E380
E780
FF00
7F00
3E00
1C00
1C00
1C00
1C00
ENDCHAR
STARTCHAR 1EF8
ENCODING 7928
SWIDTH 565 0
DWIDTH 11 0
BBX 9 18 1 0
BITMAP
1200
3E00
2000
0000
E380
E380
E380
E380
E380
E380
FF80
7F00
3F00
1C00
1C00
1C00
1C00
1C00
ENDCHAR
STARTCHAR 1EF9
ENCODING 7929
SWIDTH 514 0
DWIDTH 10 0
BBX 9 18 1 -4
BITMAP
0200
3E00
4400
0000
E380
E380
E380
E380
E380
E380
E780
FF00
7F00
3E00
1C00
1C00
1C00
1C00
ENDCHAR
STARTCHAR 2010
ENCODING 8208
SWIDTH 308 0
DWIDTH 6 0
BBX 5 2 1 4
BITMAP
F8
F8
ENDCHAR
STARTCHAR 2013
ENCODING 8211
SWIDTH 462 0
DWIDTH 9 0
BBX 10 2 0 4
BITMAP
FFC0
FFC0
ENDCHAR
STARTCHAR 2014
ENCODING 8212
SWIDTH 977 0
DWIDTH 19 0
BBX 19 2 0 4
BITMAP
FFFFE0
FFFFE0
ENDCHAR
STARTCHAR 2018
ENCODING 8216
SWIDTH 257 0
DWIDTH 5 0
BBX 3 5 1 9
BITMAP
60
60
60
60
E0
ENDCHAR
STARTCHAR 2019
ENCODING 8217
SWIDTH 257 0
DWIDTH 5 0
BBX 4 5 1 9
BITMAP
70
60
60
60
E0
ENDCHAR
STARTCHAR 201A
ENCODING 8218
SWIDTH 257 0
DWIDTH 5 0
BBX 3 4 1 -2
BITMAP
60
60
E0
C0
ENDCHAR
STARTCHAR 201C
ENCODING 8220
SWIDTH 462 0
DWIDTH 9 0
BBX 7 5 1 9
BITMAP
66
66
66
66
EE
ENDCHAR
STARTCHAR 201D
ENCODING 8221
SWIDTH 462 0
DWIDTH 9 0
BBX 7 5 1 9
BITMAP
76
66
66
6E
EC
ENDCHAR
STARTCHAR 201E
ENCODING 8222
SWIDTH 462 0
DWIDTH 9 0
BBX 7 4 1 -2
BITMAP
66
66
EE
CC
ENDCHAR
STARTCHAR 2020
ENCODING 8224
SWIDTH 462 0
DWIDTH 9 0
BBX 8 15 1 -1
BITMAP
38
38
38
FF
FF
FF
38
38
38
38
38
38
38
38
38
ENDCHAR
STARTCHAR 2021
ENCODING 8225
SWIDTH 462 0
DWIDTH 9 0
BBX 8 15 1 -1
BITMAP
38
38
38
FF
FF
FF
38
38
38
FF
FF
38
38
38
38
ENDCHAR
STARTCHAR 2022
ENCODING 8226
SWIDTH 565 0
DWIDTH 11 0
BBX 6 6 3 4
BITMAP
70
F8
FC
F8
F8
20
ENDCHAR
STARTCHAR 2026
ENCODING 8230
SWIDTH 977 0
DWIDTH 19 0
BBX 17 4 1 0
BITMAP
208100
F1C780
F1E780
71C380
ENDCHAR
STARTCHAR 2030
ENCODING 8240
SWIDTH 1234 0
DWIDTH 24 0
BBX 23 14 1 0
BITMAP
301800
7C3000
FC6000
C66000
CEC000
FCC000
7D8000
033C38
037E7C
06E6EE
0CC6C6
0CE6EE
187E7C
183C38
ENDCHAR
STARTCHAR 2039
ENCODING 8249
SWIDTH 308 0
DWIDTH 6 0
BBX 4 6 1 2
BITMAP
30
70
60
E0
60
30
ENDCHAR
STARTCHAR 203A
ENCODING 8250
SWIDTH 308 0
DWIDTH 6 0
BBX 4 6 1 2
BITMAP
C0
60
30
30
60
E0
ENDCHAR
STARTCHAR 2044
ENCODING 8260
SWIDTH 154 0
DWIDTH 3 0
BBX 9 14 -3 0
BITMAP
0080
0180
0300
0300
0600
0600
0C00
1800
1800
3000
3000
6000
6000
C000
ENDCHAR
STARTCHAR 20A3
ENCODING 8355
SWIDTH 822 0
DWIDTH 16 0
BBX 15 14 1 0
BITMAP
1E00
7E00
FE00
FE00
E076
E07E
FE7E
FE78
FE70
E070
E070
E070
E070
E070
ENDCHAR
STARTCHAR 20AB
ENCODING 8363
SWIDTH 411 0
DWIDTH 8 0
BBX 8 13 0 1
BITMAP
07
0F
07
3F
7F
67
E7
E6
7E
3C
00
00
7E
ENDCHAR
STARTCHAR 2122
ENCODING 8482
SWIDTH 822 0
DWIDTH 16 0
BBX 12 5 2 9
BITMAP
FB30
6370
63F0
62F0
62B0
ENDCHAR
STARTCHAR 2126
ENCODING 8486
SWIDTH 771 0
DWIDTH 15 0
BBX 15 14 0 0
BITMAP
0FE0
1FF8
3FFC
7C3C
781C
781E
781E
781C
781C
383C
1C78
FC7E
FC7E
FC7E
ENDCHAR
STARTCHAR 2202
ENCODING 8706
SWIDTH 514 0
DWIDTH 10 0
BBX 9 13 1 0
BITMAP
1E00
3B00
3100
0180
0180
7B80
E780
E380
C380
C300
C700
C600
7C00
ENDCHAR
STARTCHAR 2206
ENCODING 8710
SWIDTH 668 0
DWIDTH 13 0
BBX 14 14 0 0
BITMAP
0780
0780
0FC0
0FC0
1FC0
1DE0
1CE0
3CF0
3870
3870
7878
7FF8
7FF8
FFFC
ENDCHAR
STARTCHAR 220F
ENCODING 8719
SWIDTH 771 0
DWIDTH 15 0
BBX 13 18 1 -4
BITMAP
FFF8
FFF8
FFF8
F078
F078
F078
F078
F078
F078
F078
F078
F078
F078
F078
F078
F078
F078
F078
ENDCHAR
STARTCHAR 2211
ENCODING 8721
SWIDTH 720 0
DWIDTH 14 0
BBX 14 18 0 -4
BITMAP
7FF8
7FF8
7FF8
3C00
1E00
0F00
0780
03C0
01E0
03C0
0780
0700
0F00
1E00
3C00
7FFC
FFFC
FFFC
ENDCHAR
STARTCHAR 2212
ENCODING 8722
SWIDTH 822 0
DWIDTH 16 0
BBX 12 2 2 5
BITMAP
FFF0
FFF0
ENDCHAR
STARTCHAR 2219
ENCODING 8729
SWIDTH 257 0
DWIDTH 5 0
BBX 4 4 1 5
BITMAP
60
F0
F0
E0
ENDCHAR
STARTCHAR 221A
ENCODING 8730
SWIDTH 617 0
DWIDTH 12 0
BBX 12 16 1 0
BITMAP
0030
0060
0060
0040
00C0
0080
0180
F180
B100
3300
3B00
1A00
1E00
1E00
0C00
0C00
ENDCHAR
STARTCHAR 221E
ENCODING 8734
SWIDTH 822 0
DWIDTH 16 0
BBX 12 8 2 2
BITMAP
30C0
79F0
FFF0
8710
8610
CF10
FDF0
78E0
ENDCHAR
STARTCHAR 222B
ENCODING 8747
SWIDTH 565 0
DWIDTH 11 0
BBX 11 19 0 -4
BITMAP
00C0
0360
0360
0700
0600
0600
0600
0600
0600
0600
0600
0600
0600
0E00
0E00
6C00
EC00
7800
2000
ENDCHAR
STARTCHAR 2248
ENCODING 8776
SWIDTH 822 0
DWIDTH 16 0
BBX 13 8 2 2
BITMAP
3808
FF38
FFF8
81E0
1008
FF38
FFF8
81E0
ENDCHAR
STARTCHAR 2260
ENCODING 8800
SWIDTH 822 0
DWIDTH 16 0
BBX 12 12 2 0
BITMAP
0040
00E0
01C0
FFF0
FFF0
0700
0E00
FFF0
FFF0
3800
3000
2000
ENDCHAR
STARTCHAR 2264
ENCODING 8804
SWIDTH 822 0
DWIDTH 16 0
BBX 12 12 2 0
BITMAP
0030
01F0
0FE0
7F00
F800
FE00
1FE0
01F0
0030
0000
FFF0
FFF0
ENDCHAR
STARTCHAR 2265
ENCODING 8805
SWIDTH 822 0
DWIDTH 16 0
BBX 12 12 2 0
BITMAP
C000
F800
7F00
0FE0
01F0
07F0
3F80
FC00
E000
0000
FFF0
FFF0
ENDCHAR
STARTCHAR 22F2
ENCODING 8946
SWIDTH 822 0
DWIDTH 16 0
BBX 13 8 2 2
BITMAP
3808
FF38
FFF8
81E0
1008
FF38
FFF8
81E0
ENDCHAR
STARTCHAR 255F
ENCODING 9567
SWIDTH 617 0
DWIDTH 12 0
BBX 10 14 1 0
BITMAP
1E00
3F80
7F80
FFC0
E1C0
E1C0
EFC0
EFC0
EFC0
E1C0
E1C0
E1C0
E1C0
E1C0
ENDCHAR
STARTCHAR 2560
ENCODING 9568
SWIDTH 514 0
DWIDTH 10 0
BBX 8 14 1 0
BITMAP
03
1F
7F
7E
F0
E0
FF
FF
FF
F0
F8
7F
3F
0F
ENDCHAR
STARTCHAR 2561
ENCODING 9569
SWIDTH 257 0
DWIDTH 5 0
BBX 3 14 1 0
BITMAP
E0
E0
E0
E0
E0
E0
E0
E0
E0
E0
E0
E0
E0
E0
ENDCHAR
STARTCHAR 2562
ENCODING 9570
SWIDTH 771 0
DWIDTH 15 0
BBX 13 14 1 0
BITMAP
0F80
3FE0
7FF0
7FF0
F078
E038
E038
E038
E038
F078
F8F8
7FF0
3FE0
1FC0
ENDCHAR
STARTCHAR 2563
ENCODING 9571
SWIDTH 617 0
DWIDTH 12 0
BBX 10 14 1 0
BITMAP
E1C0
E1C0
E1C0
E1C0
E1C0
E1C0
E1C0
E1C0
E1C0
E1C0
F3C0
7FC0
7F80
3F00
ENDCHAR
STARTCHAR 2564
ENCODING 9572
SWIDTH 565 0
DWIDTH 11 0
BBX 9 14 1 0
BITMAP
E380
E380
E380
E380
E380
E380
FF80
7F00
3F00
1C00
1C00
1C00
1C00
1C00
ENDCHAR
STARTCHAR 2565
ENCODING 9573
SWIDTH 514 0
DWIDTH 10 0
BBX 10 10 0 0
BITMAP
1E00
3F80
7F80
73C0
71C0
F1C0
71C0
7FC0
3FC0
1FC0
ENDCHAR
STARTCHAR 2566
ENCODING 9574
SWIDTH 514 0
DWIDTH 10 0
BBX 11 10 0 0
BITMAP
0E00
3F80
7F80
73C0
6F00
E680
71E0
7FC0
3F80
1F00
ENDCHAR
STARTCHAR 2567
ENCODING 9575
SWIDTH 205 0
DWIDTH 4 0
BBX 3 14 1 0
BITMAP
E0
E0
E0
40
E0
E0
E0
E0
E0
E0
E0
E0
E0
E0
ENDCHAR
STARTCHAR 2568
ENCODING 9576
SWIDTH 205 0
DWIDTH 4 0
BBX 3 10 1 0
BITMAP
E0
E0
E0
E0
E0
E0
E0
E0
E0
E0
ENDCHAR
STARTCHAR 2569
ENCODING 9577
SWIDTH 514 0
DWIDTH 10 0
BBX 10 10 0 0
BITMAP
0E00
3F80
7F80
73C0
71C0
F1C0
71C0
7FC0
3F80
1F00
ENDCHAR
STARTCHAR 256A
ENCODING 9578
SWIDTH 514 0
DWIDTH 10 0
BBX 9 10 1 0
BITMAP
E380
E380
E380
E380
E380
E380
E780
FF00
7F00
3E00
ENDCHAR
STARTCHAR 256B
ENCODING 9579
SWIDTH 514 0
DWIDTH 10 0
BBX 9 14 1 -4
BITMAP
E380
E380
E380
E380
E380
E380
E780
FF00
7F00
3E00
1C00
1C00
1C00
1C00
ENDCHAR
STARTCHAR 25CA
ENCODING 9674
SWIDTH 462 0
DWIDTH 9 0
BBX 9 19 0 -4
BITMAP
0800
0C00
1400
1200
2200
2100
4100
4080
C080
8080
4080
4180
2100
2100
3200
1200
1400
0C00
0800
ENDCHAR
STARTCHAR 25CB
ENCODING 9675
SWIDTH 617 0
DWIDTH 12 0
BBX 6 8 3 14
BITMAP
38
30
60
40
30
78
48
C4
ENDCHAR
STARTCHAR 25CF
ENCODING 9679
SWIDTH 617 0
DWIDTH 12 0
BBX 6 8 3 14
BITMAP
70
30
18
08
30
78
48
C4
ENDCHAR
STARTCHAR 25D8
ENCODING 9688
SWIDTH 617 0
DWIDTH 12 0
BBX 8 8 3 14
BITMAP
06
0B
03
06
30
78
48
C4
ENDCHAR
STARTCHAR 25D9
ENCODING 9689
SWIDTH 617 0
DWIDTH 12 0
BBX 7 7 3 14
BITMAP
36
7C
40
30
78
48
C4
ENDCHAR
STARTCHAR F000
ENCODING 61440
SWIDTH 771 0
DWIDTH 15 0
BBX 13 15 1 0
BITMAP
00C0
01C0
0180
1860
7FF8
7FF0
FFE0
FFE0
FFE0
FFE0
FFF0
7FF8
7FF8
3FF0
1FE0
ENDCHAR
STARTCHAR F001
ENCODING 61441
SWIDTH 565 0
DWIDTH 11 0
BBX 9 14 1 0
BITMAP
1B80
7B80
FB80
E100
FB80
FB80
FB80
E380
E380
E380
E380
E380
E380
E380
ENDCHAR
STARTCHAR F002
ENCODING 61442
SWIDTH 565 0
DWIDTH 11 0
BBX 9 14 1 0
BITMAP
1B80
7B80
FB80
E380
FB80
FB80
FB80
E380
E380
E380
E380
E380
E380
E380
ENDCHAR
ENDFONT
